<svg viewBox="0 0 200 213" xmlns="http://www.w3.org/2000/svg" xmlns:xlink="http://www.w3.org/1999/xlink">
    <defs>
        <path id="a" d="M0 .765v114.017h200V.765z"/>
    </defs>
    <g fill="none" fill-rule="evenodd">
        <g transform="translate(0 97.313)">
            <mask id="b" fill="#fff">
                <use xlink:href="#a"/>
            </mask>
            <path d="M106.324 2.271c-3.478-2.008-9.17-2.008-12.65 0L2.598 54.856c-3.479 2.008-3.46 5.262.04 7.233l90.999 51.216c3.5 1.97 9.227 1.97 12.728 0l90.999-51.216c3.5-1.97 3.518-5.225.04-7.233L106.324 2.27z" fill="#FF8F52" opacity=".2" mask="url(#b)"/>
        </g>
        <path stroke="#33475C" stroke-width="5" stroke-linecap="round" stroke-linejoin="round" d="M183.311 144.336l-83.31 48.099-83.313-48.1L100 96.236z"/>
        <path stroke="#33475C" stroke-width="5" stroke-linecap="round" stroke-linejoin="round" d="M183.311 125.142l-83.31 48.1-83.313-48.1L100 77.042zM16.688 125.142v19.193l83.312 48.1v-19.193z"/>
        <path stroke="#33475C" stroke-width="5" stroke-linecap="round" stroke-linejoin="round" d="M183.311 125.142v19.193l-83.31 48.1v-19.193zM183.311 115.577l-83.31 48.1-83.313-48.1L100 67.477z"/>
        <path stroke="#33475C" stroke-width="5" stroke-linecap="round" stroke-linejoin="round" d="M183.311 115.577v9.565l-83.31 48.1v-9.566zM16.688 115.577v9.565l83.312 48.1v-9.566z"/>
        <path stroke="#33475C" stroke-width="5" stroke-linecap="round" stroke-linejoin="round" d="M163.531 102.6l-84.66 48.878v30.498l8.696 5.02 1.507-.87-1.507-.869V156.5l83.31-48.1 1.35.777v-1.556z"/>
        <path stroke="#33475C" stroke-width="5" stroke-linecap="round" stroke-linejoin="round" d="M120.995 151.555l-84.616-48.853-8.695 5.021v1.506l1.304-.753 83.311 48.1v28.759l-1.506.87 1.506.869 1.506-.87 7.19-4.151zM156.662 31.01l-12.11 3.352 2.796 76.767 14.935 5.236zM162.283 116.365l-14.935-5.236-14.935 22.482zM77.727 11.432l55.495 30.334-.81 91.845-62.128-35.87z"/>
        <g stroke-linecap="round" stroke-width="5" stroke="#33475C" stroke-linejoin="round">
            <path d="M77.727 11.432l19.554-2.807V22.12zM97.281 8.626l5.47-5.322.101 21.862-5.571-3.045z"/>
            <path d="M102.75 3.304l.102 21.862 30.37 16.6 11.33-7.404 12.11-3.352z"/>
        </g>
        <path stroke="#33475C" stroke-width="5" stroke-linecap="round" stroke-linejoin="round" d="M144.552 34.362l-11.33 7.404-.81 91.846 14.936-22.484zM119.268 98.98c-1.925 1.279-4.438 1.196-6.878-.229l-.385-.242c-1.364-.842-2.635-2.07-3.702-3.572-1.242-1.71-2.197-3.705-2.77-5.785-.65-2-.834-4.049-.525-5.85l.102-.54c.305-1.745.98-3.233 1.961-4.323 1.059-1.208 2.428-1.931 3.974-2.098 1.502-.214 3.15.208 4.726 1.21l.15.096c1.446.891 2.797 2.182 3.94 3.76 1.168 1.656 2.065 3.568 2.606 5.556.533 1.987.72 3.985.542 5.828-.044.383-.091.713-.16 1.074-.491 2.453-1.775 4.286-3.581 5.115zm11.147-11.078c-.916-3.87-2.55-7.636-4.745-10.926-1.638-2.501-3.569-4.67-5.676-6.377l1.758-9.37c2.426.322 4.345-1.343 4.833-4.197.757-3.891-1.32-8.766-4.636-10.889-3.318-2.122-6.62-.69-7.377 3.202-.006.033-.013.066-.018.1-.57 2.805.386 6.281 2.41 8.763l-1.76 9.375c-1.945-.907-3.906-1.4-5.795-1.452-2.884-5.279-12.381-22.616-17.914-32.735.293-.573.512-1.219.65-1.92.82-4.359-1.52-9.79-5.23-12.133-3.707-2.341-7.378-.707-8.2 3.652-.82 4.357 1.52 9.787 5.226 12.13 1.216.761 2.482 1.114 3.658 1.021l1.166 2.135 16.21 28.477c-1.233.464-2.366 1.16-3.37 2.074-2.088 1.825-3.543 4.575-4.188 7.92l-.135.717c-.45 2.316-.549 4.838-.29 7.448.23 2.212.74 4.46 1.509 6.653l-7.827 3.495c-2.466-2.851-5.745-3.11-7.323-.576-1.579 2.534-.859 6.9 1.608 9.75 2.466 2.852 5.746 3.11 7.324.577.631-1.013.917-2.376.815-3.875l8.07-3.605c.786 1.32 1.653 2.567 2.587 3.723 1.96 2.477 4.193 4.524 6.56 6.013l.458.29c5.697 3.606 11.644 3.507 15.734-.263 2.107-1.876 3.571-4.68 4.22-8.083l.033-.176c.655-3.348.536-7.124-.345-10.938z"/>
        <path d="M90.184 29.748S82.34 83.494 100.927 80.34c15.347-2.605 15.052-35.622 15.052-35.622" stroke="#33475C" stroke-width="5" stroke-linecap="round" stroke-linejoin="round"/>
        <path d="M90.184 29.748S82.34 83.494 100.927 80.34c15.347-2.605 15.052-35.622 15.052-35.622" stroke="#33475C" stroke-width="5" stroke-linecap="round" stroke-linejoin="round"/>
        <path d="M90.184 29.748s-17.14 34.012-3.711 42.387c18.166 11.33 29.506-27.417 29.506-27.417M97.281 14.713l-10.733 1.54-8.821-4.82 19.554-2.807v6.087M102.75 9.39l46.214 23.75 7.699-2.13L102.75 3.304z" stroke="#33475C" stroke-width="5" stroke-linecap="round" stroke-linejoin="round"/>
        <path stroke="#33475C" stroke-width="5" stroke-linecap="round" stroke-linejoin="round" d="M97.281 14.713l5.47-5.322V3.304l-5.47 5.322zM73.54 136.12l16.621-9.597-33.243-19.193-16.622 9.597z"/>
        <path stroke="#33475C" stroke-width="5" stroke-linecap="round" stroke-linejoin="round" d="M73.54 136.12l16.621-9.597-33.243-19.193-16.622 9.597z"/>
        <path stroke="#33475C" stroke-width="5" stroke-linecap="round" stroke-linejoin="round" d="M48.606 84.24l33.244 19.193 8.31 23.09-33.243-19.193z"/>
        <path stroke="#33475C" stroke-width="5" stroke-linecap="round" stroke-linejoin="round" d="M48.606 84.24l-8.31 32.687 33.243 19.193 8.31-32.687z"/>
        <path d="M71.03 124.486c-.786.424-1.75.304-2.639-.33l-.14-.107c-.495-.37-.94-.887-1.298-1.503-.418-.702-.715-1.503-.863-2.323-.18-.792-.178-1.587.004-2.27l.058-.203c.178-.66.49-1.21.906-1.594.45-.427 1.002-.658 1.602-.668.586-.03 1.205.19 1.776.632l.054.042c.525.393 1 .937 1.384 1.584.39.678.67 1.445.807 2.23.136.782.138 1.557.005 2.26-.03.146-.061.272-.1.408-.274.926-.832 1.586-1.557 1.842zm4.677-3.87c-.217-1.521-.713-3.028-1.443-4.37-.542-1.02-1.209-1.923-1.96-2.652l1.006-3.545c.922.21 1.718-.364 2.006-1.444.428-1.47-.2-3.418-1.402-4.352-1.201-.933-2.522-.497-2.95.974l-.01.037c-.318 1.06-.072 2.43.62 3.456l-1.007 3.544c-.715-.417-1.453-.675-2.178-.761-.924-2.133-3.97-9.136-5.743-13.222.133-.21.24-.45.317-.716.469-1.648-.24-3.82-1.585-4.851-1.345-1.031-2.815-.53-3.284 1.116-.468 1.648.241 3.82 1.585 4.85.442.336.915.516 1.372.522l.374.862 5.236 11.525c-.49.134-.95.363-1.37.679-.866.628-1.523 1.635-1.889 2.9l-.076.271c-.255.876-.381 1.842-.373 2.856.011.858.128 1.741.347 2.612l-3.133 1.07c-.85-1.184-2.102-1.398-2.798-.48-.695.92-.572 2.625.277 3.808.848 1.184 2.1 1.398 2.797.48.278-.369.437-.882.45-1.462l3.231-1.104c.257.534.546 1.044.864 1.523.667 1.021 1.455 1.887 2.313 2.543l.166.127c2.065 1.587 4.357 1.758 6.062.451.877-.647 1.538-1.675 1.907-2.96l.02-.068c.369-1.265.456-2.722.25-4.22zM57.722 109.899l-9.536-5.506M57.772 113.184l-10.681-6.166M54.451 113.205l-7.75-4.474M113.759 140.25l-.142.114c-.5.411-1.122.723-1.815.904-.792.218-1.645.272-2.473.159-.811-.07-1.572-.336-2.173-.76l-.18-.13c-.582-.415-1.017-.064-1.267-.642-.28-.63-.343-1.303-.18-1.955.14-.644.529-1.24 1.115-1.71l.055-.046c.528-.436 1.186-.769 1.917-.968.762-.197 1.576-.241 2.368-.13.788.114 1.532.37 2.167.749.132.082.243.155.362.243.81.606 1.281 1.43 1.319 2.297.18.99-.21 1.125-1.073 1.874zm4.561-4.477c-.431-.758-1.041-1.449-1.825-2.025l-.058-.041c-1.106-.823-2.478-2.385-3.972-2.662-1.52-.271-2.997-.776-4.493-.435-1.133.247-2.296 2.188-3.213 2.757l-1.343-2.938c.465-.927-1.62-1.31-2.572-1.981-.48-.355-1.065-.573-1.676-.657v-.039l-3.8-.98v3.522h.001c.018.632.348 1.26.988 1.734l.033.023c.924.697 2.309.888 3.49.483l3.108 2.268c-.606.636-1.1-1.27-1.392-.513-2.309.29-9.869 1.4-14.294 1.956-.163-.215-1.056 1.655-1.287 1.483-.96-.703-1.584-.507-2.772-.248l-.125-.583-2.497-.245v3.533h.004c.015.717.388 1.429 1.118 1.963 1.444 1.054 3.728 1.012 5.102-.098.442-.36.747-.805.886-1.288l.008.006c4.006-.503 10.574-1.308 13.497-1.672l.002.002c.018.475.087.949.239 1.41.353 1.147 1.13 2.193 2.235 3.01l.239.173c.766.567 1.655 1.026 2.63 1.356.825.274 1.704.44 2.602.495l.079 2.357-1.5-.132v3.462h.006c.004.31.087.626.28.923.68 1.06 2.349 1.493 3.727.97.97-.37 1.524-1.115 1.538-1.893h.01v-3.462l-1.604.175-.084-2.521c.586-.099 1.157-.242 1.707-.427 1.171-.381 2.227-.945 3.1-1.653l.171-.139c1.469-1.183 2.296-2.715 2.42-4.304l.019-.022v-.202c.003-.105.003-.21 0-.314l.008-3.148-.74.56z" stroke="#33475C" stroke-width="5" stroke-linecap="round" stroke-linejoin="round"/>
        <path d="M113.759 137.64l-.142.115c-.5.412-1.122.723-1.815.904-.792.218-1.645.272-2.473.16-.811-.071-1.572-.337-2.173-.76l-.18-.131c-.582-.414-1.017-.933-1.267-1.512-.28-.628-.343-1.302-.18-1.954.14-.644.529-1.24 1.115-1.71l.055-.046c.528-.437 1.186-.769 1.917-.968.762-.197 1.576-.242 2.368-.13.788.114 1.532.37 2.167.748.132.083.243.156.362.244.81.606 1.281 1.43 1.319 2.297.18.99-.21 1.994-1.073 2.744zm5.026-4.321c-.368-1.164-1.163-2.22-2.29-3.05l-.058-.04c-1.106-.823-2.478-1.402-3.972-1.68-1.52-.273-3.106-.237-4.601.104-1.133.247-2.188.667-3.105 1.236l-3.106-2.268c.465-.928.144-1.98-.81-2.652-1.285-.952-3.332-.922-4.57.066-1.24.99-1.202 2.562.084 3.514.011.01.022.016.033.024.924.696 2.309.888 3.49.482l3.108 2.27c-.606.635-1.064 1.345-1.356 2.1-2.307.29-9.893 1.25-14.319 1.806-.162-.215-.363-.41-.594-.582-1.445-1.056-3.73-1.012-5.104.098s-1.316 2.867.128 3.922c1.444 1.055 3.728 1.013 5.102-.097.448-.365.757-.818.894-1.31 4.006-.503 10.574-1.307 13.497-1.67.016.484.086.968.24 1.438.354 1.147 1.13 2.192 2.236 3.01l.239.173c.766.567 1.655 1.026 2.63 1.356.825.273 1.704.44 2.602.494l.126 3.746c-1.38.522-1.944 1.806-1.262 2.865.681 1.059 2.35 1.493 3.728.97 1.377-.524 1.943-1.807 1.262-2.866-.273-.423-.72-.766-1.272-.974l-.13-3.862c.586-.098 1.157-.241 1.707-.427 1.171-.38 2.227-.944 3.1-1.653l.171-.138c2.113-1.703 2.935-4.125 2.172-6.405z" stroke="#33475C" stroke-width="5" stroke-linecap="round" stroke-linejoin="round"/>
        <path d="M113.759 140.25l-.142.114c-.5.411-1.122.723-1.815.904-.792.218-1.645.272-2.473.159-.811-.07-1.572-.336-2.173-.76l-.18-.13c-.582-.415-1.017-.064-1.267-.642-.28-.63-.343-1.303-.18-1.955.14-.644.529-1.24 1.115-1.71l.055-.046c.528-.436 1.186-.769 1.917-.968.762-.197 1.576-.241 2.368-.13.788.114 1.532.37 2.167.749.132.082.243.155.362.243.81.606 1.281 1.43 1.319 2.297.18.99-.21 1.125-1.073 1.874zm4.561-4.477c-.431-.758-1.041-1.449-1.825-2.025l-.058-.041c-1.106-.823-2.478-2.385-3.972-2.662-1.52-.271-2.997-.776-4.493-.435-1.133.247-2.296 2.188-3.213 2.757l-1.343-2.938c.465-.927-1.62-1.31-2.572-1.981-.48-.355-1.065-.573-1.676-.657v-.039l-3.8-.98v3.522h.001c.018.632.348 1.26.988 1.734l.033.023c.924.697 2.309.888 3.49.483l3.108 2.268c-.606.636-1.1-1.27-1.392-.513-2.309.29-9.869 1.4-14.294 1.956-.163-.215-1.056 1.655-1.287 1.483-.96-.703-1.584-.507-2.772-.248l-.125-.583-2.497-.245v3.533h.004c.015.717.388 1.429 1.118 1.963 1.444 1.054 3.728 1.012 5.102-.098.442-.36.747-.805.886-1.288l.008.006c4.006-.503 10.574-1.308 13.497-1.672l.002.002c.018.475.087.949.239 1.41.353 1.147 1.13 2.193 2.235 3.01l.239.173c.766.567 1.655 1.026 2.63 1.356.825.274 1.704.44 2.602.495l.079 2.357-1.5-.132v3.462h.006c.004.31.087.626.28.923.68 1.06 2.349 1.493 3.727.97.97-.37 1.524-1.115 1.538-1.893h.01v-3.462l-1.604.175-.084-2.521c.586-.099 1.157-.242 1.707-.427 1.171-.381 2.227-.945 3.1-1.653l.171-.139c1.469-1.183 2.296-2.715 2.42-4.304l.019-.022v-.202c.003-.105.003-.21 0-.314l.008-3.148-.74.56z" stroke="#33475C" stroke-width="5" stroke-linecap="round" stroke-linejoin="round"/>
        <path d="M113.759 137.64l-.142.115c-.5.412-1.122.723-1.815.904-.792.218-1.645.272-2.473.16-.811-.071-1.572-.337-2.173-.76l-.18-.131c-.582-.414-1.017-.933-1.267-1.512-.28-.628-.343-1.302-.18-1.954.14-.644.529-1.24 1.115-1.71l.055-.046c.528-.437 1.186-.769 1.917-.968.762-.197 1.576-.242 2.368-.13.788.114 1.532.37 2.167.748.132.083.243.156.362.244.81.606 1.281 1.43 1.319 2.297.18.99-.21 1.994-1.073 2.744zm5.026-4.321c-.368-1.164-1.163-2.22-2.29-3.05l-.058-.04c-1.106-.823-2.478-1.402-3.972-1.68-1.52-.273-3.106-.237-4.601.104-1.133.247-2.188.667-3.105 1.236l-3.106-2.268c.465-.928.144-1.98-.81-2.652-1.285-.952-3.332-.922-4.57.066-1.24.99-1.202 2.562.084 3.514.011.01.022.016.033.024.924.696 2.309.888 3.49.482l3.108 2.27c-.606.635-1.064 1.345-1.356 2.1-2.307.29-9.893 1.25-14.319 1.806-.162-.215-.363-.41-.594-.582-1.445-1.056-3.73-1.012-5.104.098s-1.316 2.867.128 3.922c1.444 1.055 3.728 1.013 5.102-.097.448-.365.757-.818.894-1.31 4.006-.503 10.574-1.307 13.497-1.67.016.484.086.968.24 1.438.354 1.147 1.13 2.192 2.236 3.01l.239.173c.766.567 1.655 1.026 2.63 1.356.825.273 1.704.44 2.602.494l.126 3.746c-1.38.522-1.944 1.806-1.262 2.865.681 1.059 2.35 1.493 3.728.97 1.377-.524 1.943-1.807 1.262-2.866-.273-.423-.72-.766-1.272-.974l-.13-3.862c.586-.098 1.157-.241 1.707-.427 1.171-.38 2.227-.944 3.1-1.653l.171-.138c2.113-1.703 2.935-4.125 2.172-6.405z" stroke="#33475C" stroke-width="5" stroke-linecap="round" stroke-linejoin="round"/>
        <path d="M113.759 140.25l-.142.114c-.5.411-1.122.723-1.815.904-.792.218-1.645.272-2.473.159-.811-.07-1.572-.336-2.173-.76l-.18-.13c-.582-.415-1.017-.064-1.267-.642-.28-.63-.343-1.303-.18-1.955.14-.644.529-1.24 1.115-1.71l.055-.046c.528-.436 1.186-.769 1.917-.968.762-.197 1.576-.241 2.368-.13.788.114 1.532.37 2.167.749.132.082.243.155.362.243.81.606 1.281 1.43 1.319 2.297.18.99-.21 1.125-1.073 1.874zm4.561-4.477c-.431-.758-1.041-1.449-1.825-2.025l-.058-.041c-1.106-.823-2.478-2.385-3.972-2.662-1.52-.271-2.997-.776-4.493-.435-1.133.247-2.296 2.188-3.213 2.757l-1.343-2.938c.465-.927-1.62-1.31-2.572-1.981-.48-.355-1.065-.573-1.676-.657v-.039l-3.8-.98v3.522h.001c.018.632.348 1.26.988 1.734l.033.023c.924.697 2.309.888 3.49.483l3.108 2.268c-.606.636-1.1-1.27-1.392-.513-2.309.29-9.869 1.4-14.294 1.956-.163-.215-1.056 1.655-1.287 1.483-.96-.703-1.584-.507-2.772-.248l-.125-.583-2.497-.245v3.533h.004c.015.717.388 1.429 1.118 1.963 1.444 1.054 3.728 1.012 5.102-.098.442-.36.747-.805.886-1.288l.008.006c4.006-.503 10.574-1.308 13.497-1.672l.002.002c.018.475.087.949.239 1.41.353 1.147 1.13 2.193 2.235 3.01l.239.173c.766.567 1.655 1.026 2.63 1.356.825.274 1.704.44 2.602.495l.079 2.357-1.5-.132v3.462h.006c.004.31.087.626.28.923.68 1.06 2.349 1.493 3.727.97.97-.37 1.524-1.115 1.538-1.893h.01v-3.462l-1.604.175-.084-2.521c.586-.099 1.157-.242 1.707-.427 1.171-.381 2.227-.945 3.1-1.653l.171-.139c1.469-1.183 2.296-2.715 2.42-4.304l.019-.022v-.202c.003-.105.003-.21 0-.314l.008-3.148-.74.56z" stroke="#33475C" stroke-width="5" stroke-linecap="round" stroke-linejoin="round"/>
        <path d="M113.759 137.64l-.142.115c-.5.412-1.122.723-1.815.904-.792.218-1.645.272-2.473.16-.811-.071-1.572-.337-2.173-.76l-.18-.131c-.582-.414-1.017-.933-1.267-1.512-.28-.628-.343-1.302-.18-1.954.14-.644.529-1.24 1.115-1.71l.055-.046c.528-.437 1.186-.769 1.917-.968.762-.197 1.576-.242 2.368-.13.788.114 1.532.37 2.167.748.132.083.243.156.362.244.81.606 1.281 1.43 1.319 2.297.18.99-.21 1.994-1.073 2.744zm5.026-4.321c-.368-1.164-1.163-2.22-2.29-3.05l-.058-.04c-1.106-.823-2.478-1.402-3.972-1.68-1.52-.273-3.106-.237-4.601.104-1.133.247-2.188.667-3.105 1.236l-3.106-2.268c.465-.928.144-1.98-.81-2.652-1.285-.952-3.332-.922-4.57.066-1.24.99-1.202 2.562.084 3.514.011.01.022.016.033.024.924.696 2.309.888 3.49.482l3.108 2.27c-.606.635-1.064 1.345-1.356 2.1-2.307.29-9.893 1.25-14.319 1.806-.162-.215-.363-.41-.594-.582-1.445-1.056-3.73-1.012-5.104.098s-1.316 2.867.128 3.922c1.444 1.055 3.728 1.013 5.102-.097.448-.365.757-.818.894-1.31 4.006-.503 10.574-1.307 13.497-1.67.016.484.086.968.24 1.438.354 1.147 1.13 2.192 2.236 3.01l.239.173c.766.567 1.655 1.026 2.63 1.356.825.273 1.704.44 2.602.494l.126 3.746c-1.38.522-1.944 1.806-1.262 2.865.681 1.059 2.35 1.493 3.728.97 1.377-.524 1.943-1.807 1.262-2.866-.273-.423-.72-.766-1.272-.974l-.13-3.862c.586-.098 1.157-.241 1.707-.427 1.171-.38 2.227-.944 3.1-1.653l.171-.138c2.113-1.703 2.935-4.125 2.172-6.405z" stroke="#33475C" stroke-width="5" stroke-linecap="round" stroke-linejoin="round"/>
        <path stroke="#33475C" stroke-linecap="round" stroke-linejoin="round" d="M183.311 144.336l-83.31 48.099-83.313-48.1L100 96.236z"/>
        <path stroke="#33475C" stroke-linecap="round" stroke-linejoin="round" d="M183.311 125.142l-83.31 48.1-83.313-48.1L100 77.042z"/>
        <path fill="#EAF0F6" d="M16.688 125.142v19.193l83.312 48.1v-19.193z"/>
        <path stroke="#33475C" stroke-linecap="round" stroke-linejoin="round" d="M16.688 125.142v19.193l83.312 48.1v-19.193z"/>
        <path fill="#CBD6E3" d="M183.311 125.142v19.193l-83.31 48.1v-19.193z"/>
        <path stroke="#33475C" stroke-linecap="round" stroke-linejoin="round" d="M183.311 125.142v19.193l-83.31 48.1v-19.193z"/>
        <path fill="#FFF" d="M183.311 115.577l-83.31 48.1-83.313-48.1L100 67.477z"/>
        <path stroke="#33475C" stroke-linecap="round" stroke-linejoin="round" d="M183.311 115.577l-83.31 48.1-83.313-48.1L100 67.477z"/>
        <path fill="#CBD6E3" d="M183.311 115.577v9.565l-83.31 48.1v-9.566z"/>
        <path stroke="#33475C" stroke-linecap="round" stroke-linejoin="round" d="M183.311 115.577v9.565l-83.31 48.1v-9.566z"/>
        <path fill="#EAF0F6" d="M16.688 115.577v9.565l83.312 48.1v-9.566z"/>
        <path stroke="#33475C" stroke-linecap="round" stroke-linejoin="round" d="M16.688 115.577v9.565l83.312 48.1v-9.566z"/>
        <path fill="#FFAB7D" d="M163.531 102.6l-84.66 48.878v30.498l8.696 5.02 1.507-.87-1.507-.869V156.5l83.31-48.1 1.35.777v-1.556z"/>
        <path stroke="#33475C" stroke-linecap="round" stroke-linejoin="round" d="M163.531 102.6l-84.66 48.878v30.498l8.696 5.02 1.507-.87-1.507-.869V156.5l83.31-48.1 1.35.777v-1.556z"/>
        <path fill="#FFAB7D" d="M120.995 151.555l-84.616-48.853-8.695 5.021v1.506l1.304-.753 83.311 48.1v28.759l-1.506.87 1.506.869 1.506-.87 7.19-4.151z"/>
        <path stroke="#33475C" stroke-linecap="round" stroke-linejoin="round" d="M120.995 151.555l-84.616-48.853-8.695 5.021v1.506l1.304-.753 83.311 48.1v28.759l-1.506.87 1.506.869 1.506-.87 7.19-4.151z"/>
        <path fill="#FF8F52" d="M156.662 31.01l-12.11 3.352 2.796 76.767 14.935 5.236z"/>
        <path stroke="#33475C" stroke-linecap="round" stroke-linejoin="round" d="M156.662 31.01l-12.11 3.352 2.796 76.767 14.935 5.236z"/>
        <path fill="#FFAB7D" d="M162.283 116.365l-14.935-5.236-14.935 22.482z"/>
        <path stroke="#33475C" stroke-linecap="round" stroke-linejoin="round" d="M162.283 116.365l-14.935-5.236-14.935 22.482z"/>
        <path fill="#FFAB7D" d="M77.727 11.432l55.495 30.334-.81 91.845-62.128-35.87z"/>
        <path stroke="#33475C" stroke-linecap="round" stroke-linejoin="round" d="M77.727 11.432l55.495 30.334-.81 91.845-62.128-35.87z"/>
        <path fill="#E8824A" d="M77.727 11.432l19.554-2.807V22.12z"/>
        <path stroke="#33475C" stroke-linecap="round" stroke-linejoin="round" d="M77.727 11.432l19.554-2.807V22.12z"/>
        <path fill="#E8824A" d="M97.281 8.626l5.47-5.322.101 21.862-5.571-3.045z"/>
        <path stroke="#33475C" stroke-linecap="round" stroke-linejoin="round" d="M97.281 8.626l5.47-5.322.101 21.862-5.571-3.045z"/>
        <path fill="#FFAB7D" d="M102.75 3.304l.102 21.862 30.37 16.6 11.33-7.404 12.11-3.352z"/>
        <path stroke="#33475C" stroke-linecap="round" stroke-linejoin="round" d="M102.75 3.304l.102 21.862 30.37 16.6 11.33-7.404 12.11-3.352z"/>
        <path fill="#E8824A" d="M144.552 34.362l-11.33 7.404-.81 91.846 14.936-22.484z"/>
        <path stroke="#33475C" stroke-linecap="round" stroke-linejoin="round" d="M144.552 34.362l-11.33 7.404-.81 91.846 14.936-22.484z"/>
        <path d="M119.268 98.98c-1.925 1.279-4.438 1.196-6.878-.229l-.385-.242c-1.364-.842-2.635-2.07-3.702-3.572-1.242-1.71-2.197-3.705-2.77-5.785-.65-2-.834-4.049-.525-5.85l.102-.54c.305-1.745.98-3.233 1.961-4.323 1.059-1.208 2.428-1.931 3.974-2.098 1.502-.214 3.15.208 4.726 1.21l.15.096c1.446.891 2.797 2.182 3.94 3.76 1.168 1.656 2.065 3.568 2.606 5.556.533 1.987.72 3.985.542 5.828-.044.383-.091.713-.16 1.074-.491 2.453-1.775 4.286-3.581 5.115m11.147-11.078c-.916-3.87-2.55-7.636-4.745-10.926-1.638-2.501-3.569-4.67-5.676-6.377l1.758-9.37c2.426.322 4.345-1.343 4.833-4.197.757-3.891-1.32-8.766-4.636-10.889-3.318-2.122-6.62-.69-7.377 3.202-.006.033-.013.066-.018.1-.57 2.805.386 6.281 2.41 8.763l-1.76 9.375c-1.945-.907-3.906-1.4-5.795-1.452-2.884-5.279-12.381-22.616-17.914-32.735.293-.573.512-1.219.65-1.92.82-4.359-1.52-9.79-5.23-12.133-3.707-2.341-7.378-.707-8.2 3.652-.82 4.357 1.52 9.787 5.226 12.13 1.216.761 2.482 1.114 3.658 1.021l1.166 2.135 16.21 28.477c-1.233.464-2.366 1.16-3.37 2.074-2.088 1.825-3.543 4.575-4.188 7.92l-.135.717c-.45 2.316-.549 4.838-.29 7.448.23 2.212.74 4.46 1.509 6.653l-7.827 3.495c-2.466-2.851-5.745-3.11-7.323-.576-1.579 2.534-.859 6.9 1.608 9.75 2.466 2.852 5.746 3.11 7.324.577.631-1.013.917-2.376.815-3.875l8.07-3.605c.786 1.32 1.653 2.567 2.587 3.723 1.96 2.477 4.193 4.524 6.56 6.013l.458.29c5.697 3.606 11.644 3.507 15.734-.263 2.107-1.876 3.571-4.68 4.22-8.083l.033-.176c.655-3.348.536-7.124-.345-10.938" fill="#FF8F52"/>
        <path d="M90.184 29.748S82.34 83.494 100.927 80.34c15.347-2.605 15.052-35.622 15.052-35.622" stroke="#E8824A" stroke-width="5" opacity=".5" stroke-linecap="round" stroke-linejoin="round"/>
        <path d="M90.184 29.748s-17.14 34.012-3.711 42.387c18.166 11.33 29.506-27.417 29.506-27.417" stroke="#FFF" stroke-width="5" stroke-linecap="round" stroke-linejoin="round"/>
        <path fill="#FF8F52" d="M97.281 14.713l-10.733 1.54-8.821-4.82 19.554-2.807z"/>
        <path stroke="#33475C" stroke-linecap="round" stroke-linejoin="round" d="M97.281 14.713l-10.733 1.54-8.821-4.82 19.554-2.807v6.087"/>
        <path fill="#FF8F52" d="M102.75 9.39l46.214 23.75 7.699-2.13L102.75 3.304z"/>
        <path stroke="#33475C" stroke-linecap="round" stroke-linejoin="round" d="M102.75 9.39l46.214 23.75 7.699-2.13L102.75 3.304z"/>
        <path fill="#FF8F52" d="M97.281 14.713l5.47-5.322V3.304l-5.47 5.322z"/>
        <path stroke="#33475C" stroke-linecap="round" stroke-linejoin="round" d="M97.281 14.713l5.47-5.322V3.304l-5.47 5.322z"/>
        <path fill="#7B97B7" opacity=".25" d="M73.54 136.12l16.621-9.597-33.243-19.193-16.622 9.597z"/>
        <path fill="#FFAB7D" d="M48.606 84.24l33.244 19.193 8.31 23.09-33.243-19.193z"/>
        <path stroke="#33475C" stroke-linecap="round" stroke-linejoin="round" d="M48.606 84.24l33.244 19.193 8.31 23.09-33.243-19.193z"/>
        <path fill="#F5F8FA" d="M48.606 84.24l-8.31 32.687 33.243 19.193 8.31-32.687z"/>
        <path stroke="#33475C" stroke-linecap="round" stroke-linejoin="round" d="M48.606 84.24l-8.31 32.687 33.243 19.193 8.31-32.687z"/>
        <path d="M71.03 124.486c-.786.424-1.75.304-2.639-.33l-.14-.107c-.495-.37-.94-.887-1.298-1.503-.418-.702-.715-1.503-.863-2.323-.18-.792-.178-1.587.004-2.27l.058-.203c.178-.66.49-1.21.906-1.594.45-.427 1.002-.658 1.602-.668.586-.03 1.205.19 1.776.632l.054.042c.525.393 1 .937 1.384 1.584.39.678.67 1.445.807 2.23.136.782.138 1.557.005 2.26-.03.146-.061.272-.1.408-.274.926-.832 1.586-1.557 1.842m4.678-3.87c-.217-1.521-.713-3.028-1.443-4.37-.542-1.02-1.209-1.923-1.96-2.652l1.006-3.545c.922.21 1.718-.364 2.006-1.444.428-1.47-.2-3.418-1.402-4.352-1.201-.933-2.522-.497-2.95.974l-.01.037c-.318 1.06-.072 2.43.62 3.456l-1.007 3.544c-.715-.417-1.453-.675-2.178-.761-.924-2.133-3.97-9.136-5.743-13.222.133-.21.24-.45.317-.716.469-1.648-.24-3.82-1.585-4.851-1.345-1.031-2.815-.53-3.284 1.116-.468 1.648.241 3.82 1.585 4.85.442.336.915.516 1.372.522l.374.862 5.236 11.525c-.49.134-.95.363-1.37.679-.866.628-1.523 1.635-1.889 2.9l-.076.271c-.255.876-.381 1.842-.373 2.856.011.858.128 1.741.347 2.612l-3.133 1.07c-.85-1.184-2.102-1.398-2.798-.48-.695.92-.572 2.625.277 3.808.848 1.184 2.1 1.398 2.797.48.278-.369.437-.882.45-1.462l3.231-1.104c.257.534.546 1.044.864 1.523.667 1.021 1.455 1.887 2.313 2.543l.166.127c2.065 1.587 4.357 1.758 6.062.451.877-.647 1.538-1.675 1.907-2.96l.02-.068c.369-1.265.456-2.722.25-4.22" fill="#FF8F52"/>
        <path d="M57.722 109.899l-9.536-5.506" fill="#FFF"/>
        <path d="M57.722 109.899l-9.536-5.506" stroke="#FF8F52" stroke-width="2" stroke-linecap="round" stroke-linejoin="round"/>
        <path d="M57.772 113.184l-10.681-6.166" fill="#FFF"/>
        <path d="M57.772 113.184l-10.681-6.166" stroke="#FFAB7D" stroke-linecap="round" stroke-linejoin="round"/>
        <path d="M54.451 113.205l-7.75-4.474" fill="#FFF"/>
        <path d="M54.451 113.205l-7.75-4.474" stroke="#FFAB7D" stroke-linecap="round" stroke-linejoin="round"/>
        <path d="M113.759 140.25l-.142.114c-.5.411-1.122.723-1.815.904-.792.218-1.645.272-2.473.159-.811-.07-1.572-.336-2.173-.76l-.18-.13c-.582-.415-1.017-.064-1.267-.642-.28-.63-.343-1.303-.18-1.955.14-.644.529-1.24 1.115-1.71l.055-.046c.528-.436 1.186-.769 1.917-.968.762-.197 1.576-.241 2.368-.13.788.114 1.532.37 2.167.749.132.082.243.155.362.243.81.606 1.281 1.43 1.319 2.297.18.99-.21 1.125-1.073 1.874zm4.561-4.477c-.431-.758-1.041-1.449-1.825-2.025l-.058-.041c-1.106-.823-2.478-2.385-3.972-2.662-1.52-.271-2.997-.776-4.493-.435-1.133.247-2.296 2.188-3.213 2.757l-1.343-2.938c.465-.927-1.62-1.31-2.572-1.981-.48-.355-1.065-.573-1.676-.657v-.039l-3.8-.98v3.522h.001c.018.632.348 1.26.988 1.734l.033.023c.924.697 2.309.888 3.49.483l3.108 2.268c-.606.636-1.1-1.27-1.392-.513-2.309.29-9.869 1.4-14.294 1.956-.163-.215-1.056 1.655-1.287 1.483-.96-.703-1.584-.507-2.772-.248l-.125-.583-2.497-.245v3.533h.004c.015.717.388 1.429 1.118 1.963 1.444 1.054 3.728 1.012 5.102-.098.442-.36.747-.805.886-1.288l.008.006c4.006-.503 10.574-1.308 13.497-1.672l.002.002c.018.475.087.949.239 1.41.353 1.147 1.13 2.193 2.235 3.01l.239.173c.766.567 1.655 1.026 2.63 1.356.825.274 1.704.44 2.602.495l.079 2.357-1.5-.132v3.462h.006c.004.31.087.626.28.923.68 1.06 2.349 1.493 3.727.97.97-.37 1.524-1.115 1.538-1.893h.01v-3.462l-1.604.175-.084-2.521c.586-.099 1.157-.242 1.707-.427 1.171-.381 2.227-.945 3.1-1.653l.171-.139c1.469-1.183 2.296-2.715 2.42-4.304l.019-.022v-.202c.003-.105.003-.21 0-.314l.008-3.148-.74.56z" stroke="#33475C" stroke-width="2" stroke-linecap="round" stroke-linejoin="round"/>
        <path d="M113.759 137.64l-.142.115c-.5.412-1.122.723-1.815.904-.792.218-1.645.272-2.473.16-.811-.071-1.572-.337-2.173-.76l-.18-.131c-.582-.414-1.017-.933-1.267-1.512-.28-.628-.343-1.302-.18-1.954.14-.644.529-1.24 1.115-1.71l.055-.046c.528-.437 1.186-.769 1.917-.968.762-.197 1.576-.242 2.368-.13.788.114 1.532.37 2.167.748.132.083.243.156.362.244.81.606 1.281 1.43 1.319 2.297.18.99-.21 1.994-1.073 2.744zm5.026-4.321c-.368-1.164-1.163-2.22-2.29-3.05l-.058-.04c-1.106-.823-2.478-1.402-3.972-1.68-1.52-.273-3.106-.237-4.601.104-1.133.247-2.188.667-3.105 1.236l-3.106-2.268c.465-.928.144-1.98-.81-2.652-1.285-.952-3.332-.922-4.57.066-1.24.99-1.202 2.562.084 3.514.011.01.022.016.033.024.924.696 2.309.888 3.49.482l3.108 2.27c-.606.635-1.064 1.345-1.356 2.1-2.307.29-9.893 1.25-14.319 1.806-.162-.215-.363-.41-.594-.582-1.445-1.056-3.73-1.012-5.104.098s-1.316 2.867.128 3.922c1.444 1.055 3.728 1.013 5.102-.097.448-.365.757-.818.894-1.31 4.006-.503 10.574-1.307 13.497-1.67.016.484.086.968.24 1.438.354 1.147 1.13 2.192 2.236 3.01l.239.173c.766.567 1.655 1.026 2.63 1.356.825.273 1.704.44 2.602.494l.126 3.746c-1.38.522-1.944 1.806-1.262 2.865.681 1.059 2.35 1.493 3.728.97 1.377-.524 1.943-1.807 1.262-2.866-.273-.423-.72-.766-1.272-.974l-.13-3.862c.586-.098 1.157-.241 1.707-.427 1.171-.38 2.227-.944 3.1-1.653l.171-.138c2.113-1.703 2.935-4.125 2.172-6.405z" stroke="#33475C" stroke-width="2" stroke-linecap="round" stroke-linejoin="round"/>
        <path d="M113.759 140.25l-.142.114c-.5.411-1.122.723-1.815.904-.792.218-1.645.272-2.473.159-.811-.07-1.572-.336-2.173-.76l-.18-.13c-.582-.415-1.017-.064-1.267-.642-.28-.63-.343-1.303-.18-1.955.14-.644.529-1.24 1.115-1.71l.055-.046c.528-.436 1.186-.769 1.917-.968.762-.197 1.576-.241 2.368-.13.788.114 1.532.37 2.167.749.132.082.243.155.362.243.81.606 1.281 1.43 1.319 2.297.18.99-.21 1.125-1.073 1.874zm4.561-4.477c-.431-.758-1.041-1.449-1.825-2.025l-.058-.041c-1.106-.823-2.478-2.385-3.972-2.662-1.52-.271-2.997-.776-4.493-.435-1.133.247-2.296 2.188-3.213 2.757l-1.343-2.938c.465-.927-1.62-1.31-2.572-1.981-.48-.355-1.065-.573-1.676-.657v-.039l-3.8-.98v3.522h.001c.018.632.348 1.26.988 1.734l.033.023c.924.697 2.309.888 3.49.483l3.108 2.268c-.606.636-1.1-1.27-1.392-.513-2.309.29-9.869 1.4-14.294 1.956-.163-.215-1.056 1.655-1.287 1.483-.96-.703-1.584-.507-2.772-.248l-.125-.583-2.497-.245v3.533h.004c.015.717.388 1.429 1.118 1.963 1.444 1.054 3.728 1.012 5.102-.098.442-.36.747-.805.886-1.288l.008.006c4.006-.503 10.574-1.308 13.497-1.672l.002.002c.018.475.087.949.239 1.41.353 1.147 1.13 2.193 2.235 3.01l.239.173c.766.567 1.655 1.026 2.63 1.356.825.274 1.704.44 2.602.495l.079 2.357-1.5-.132v3.462h.006c.004.31.087.626.28.923.68 1.06 2.349 1.493 3.727.97.97-.37 1.524-1.115 1.538-1.893h.01v-3.462l-1.604.175-.084-2.521c.586-.099 1.157-.242 1.707-.427 1.171-.381 2.227-.945 3.1-1.653l.171-.139c1.469-1.183 2.296-2.715 2.42-4.304l.019-.022v-.202c.003-.105.003-.21 0-.314l.008-3.148-.74.56z" fill="#FFC7AA"/>
        <path d="M113.759 137.64l-.142.115c-.5.412-1.122.723-1.815.904-.792.218-1.645.272-2.473.16-.811-.071-1.572-.337-2.173-.76l-.18-.131c-.582-.414-1.017-.933-1.267-1.512-.28-.628-.343-1.302-.18-1.954.14-.644.529-1.24 1.115-1.71l.055-.046c.528-.437 1.186-.769 1.917-.968.762-.197 1.576-.242 2.368-.13.788.114 1.532.37 2.167.748.132.083.243.156.362.244.81.606 1.281 1.43 1.319 2.297.18.99-.21 1.994-1.073 2.744m5.026-4.322c-.368-1.164-1.163-2.22-2.29-3.05l-.058-.04c-1.106-.823-2.478-1.402-3.972-1.68-1.52-.273-3.106-.237-4.601.104-1.133.247-2.188.667-3.105 1.236l-3.106-2.268c.465-.928.144-1.98-.81-2.652-1.285-.952-3.332-.922-4.57.066-1.24.99-1.202 2.562.084 3.514.011.01.022.016.033.024.924.696 2.309.888 3.49.482l3.108 2.27c-.606.635-1.064 1.345-1.356 2.1-2.307.29-9.893 1.25-14.319 1.806-.162-.215-.363-.41-.594-.582-1.445-1.056-3.73-1.012-5.104.098s-1.316 2.867.128 3.922c1.444 1.055 3.728 1.013 5.102-.097.448-.365.757-.818.894-1.31 4.006-.503 10.574-1.307 13.497-1.67.016.484.086.968.24 1.438.354 1.147 1.13 2.192 2.236 3.01l.239.173c.766.567 1.655 1.026 2.63 1.356.825.273 1.704.44 2.602.494l.126 3.746c-1.38.522-1.944 1.806-1.262 2.865.681 1.059 2.35 1.493 3.728.97 1.377-.524 1.943-1.807 1.262-2.866-.273-.423-.72-.766-1.272-.974l-.13-3.862c.586-.098 1.157-.241 1.707-.427 1.171-.38 2.227-.944 3.1-1.653l.171-.138c2.113-1.703 2.935-4.125 2.172-6.405" fill="#FFF"/>
    </g>
</svg>
