<svg viewBox="0 0 125 118" xmlns="http://www.w3.org/2000/svg">
    <g fill="none" fill-rule="evenodd">
        <path d="M74.002 116.699l47.531-27.442c1.713-.989 1.496-2.732-.482-3.873L57.163 48.498c-1.977-1.142-4.996-1.267-6.709-.278L2.924 75.662c-1.713.989-1.496 2.731.481 3.873l63.888 36.886c1.978 1.141 4.997 1.266 6.71.278" fill-opacity=".25" fill="#F9D28C"/>
        <path stroke="#33475C" stroke-width="5" stroke-linecap="round" stroke-linejoin="round" d="M55.714 22.253L10.45 48.45l64.7 38.027 45.844-26.533zM75.15 88.284s-8.319 1.211-7.64 9.235c.63 7.464 7.64 1.887 7.64 1.887l43.118-24.956V63.328L75.15 88.284z"/>
        <path d="M69.469 104.337s-.415-.122-.958-.553L6.337 67.924C4.466 66.515 2.5 63.937 2.5 59.274c0-8.89 7.95-10.825 7.95-10.825l12.972 7.58L75.15 86.476s-8.308 1.657-9.342 8.138c-.903 5.67 1.746 8.618 2.703 9.17M60.195 2.5L22.693 24.215 79.63 57.761l38.084-22.053zM79.63 59.57s-8.063 1.192-7.64 9.233c.541 10.294 7.64 1.888 7.64 1.888l35.358-20.476V39.093L79.63 59.57z" stroke="#33475C" stroke-width="5" stroke-linecap="round" stroke-linejoin="round"/>
        <path d="M73.95 75.622s-.415-.122-.958-.553L18.578 43.69c-1.87-1.409-3.836-3.988-3.836-8.65 0-8.89 7.95-10.825 7.95-10.825l12.97 7.58L79.63 57.761s-8.307 1.657-9.341 8.138c-.903 5.67 1.746 8.618 2.703 9.17M70.995 105.33c-.246 0-.499-.017-.757-.057-1.817-.284-3.412-1.642-4.377-3.726-1.804-3.901-1.105-8.846 1.78-12.598 2.515-3.271 5.145-3.83 7.145-3.574l44.091-25.51c.957-.553 2.18-.225 2.734.73.552.956.227 2.18-.73 2.733l-44.73 25.879c-.453.26-.99.335-1.493.207-.909-.23-2.165-.213-3.846 1.973-1.957 2.547-2.489 5.955-1.32 8.48.376.813.75 1.143 1.337 1.338.41.137 1.037-.036 1.58-.336.553-.305 1.493-1.116 2.098-1.626l.362-.305c.088-.072.18-.136.278-.193l43.402-25.1c.956-.554 2.18-.227 2.733.729.553.956.228 2.18-.728 2.733L77.302 102.12l-.216.18c-1.236 1.043-2.434 2.015-3.513 2.456-.636.26-1.544.575-2.578.575z" stroke="#33475C" stroke-width="5" stroke-linecap="round" stroke-linejoin="round"/>
        <path d="M67.642 88.948c-2.885 3.753-3.584 8.698-1.781 12.599.964 2.085 2.56 3.443 4.377 3.725.258.04.51.058.757.058 1.034 0 1.942-.314 2.579-.573 1.078-.442 2.276-1.415 3.512-2.457l.216-.18c.232-3.047-2.432-3.181-2.432-3.181l-.362.304c-.606.51-1.545 1.322-2.098 1.626-.545.3-1.171.472-1.581.335-.586-.194-.962-.524-1.337-1.336-1.168-2.526-.637-5.934 1.32-8.481 1.682-2.186 2.937-2.201 3.845-1.972.505.127 1.042.053 1.494-.209.956-3.27-1.364-3.832-1.364-3.832-2-.255-4.63.303-7.145 3.575zM60.194 2.5L22.692 24.215 79.63 57.76l38.084-22.052z" stroke="#33475C" stroke-width="5" stroke-linecap="round" stroke-linejoin="round"/>
        <path stroke="#33475C" stroke-width="5" stroke-linecap="round" stroke-linejoin="round" d="M61.464 47.058L99.372 25.12 78.547 13.096 40.849 34.912z"/>
        <path d="M58.584 29.57c-.109-.365-.578-.524-.94-.408-.362.116-.626.428-.825.753-.888 1.452-.764 3.454.296 4.785.226.284.528.555.89.56.514.006.864-.504 1.103-.959 1.016-1.93 1.826-3.968 2.411-6.068l-.192 2.525c-.038.511.257 1.265.71 1.025.321-1.136 1.09-2.14 2.103-2.748-.12 1.078-.018 2.18.298 3.218 1.451-1.426 2.67-3.089 3.591-4.903.588-.102.626 1.111 1.222 1.141.334.017.526-.36.674-.662.648-1.315 1.993-2.114 3.268-2.84l4.436-2.524M67.932 38.927l2.236-2.027c-.142.264.205.574.5.52.295-.055.502-.313.681-.554l1.403-1.882.452 1.054c.657-1.03 1.538-1.916 2.563-2.579l.337 1.175c.651-.816 1.382-1.568 2.18-2.242l.208.747c.587-1.037 1.264-2.023 2.021-2.944-.126.397.019.864.346 1.12l1.877-2.016M65.227 36.676c.925-1.196 1.69-2.517 2.265-3.916.327.682.567 1.404.712 2.146.957-1.06 1.857-2.172 2.693-3.331-.414.448-.188 1.302.394 1.487.64-1.197 1.561-2.241 2.666-3.026-.095.609.007 1.248.288 1.798.425-1.136 1.003-2.214 1.711-3.197l.526 1.018 1.842-2.6M75.95 76.802c-.264 0-.526-.02-.785-.062-1.8-.28-4.405-1.892-5.266-3.754-1.711-3.7-1.05-8.389 1.685-11.945.669-.87 4.059-5 8.126-5.057l35.526-20.629c.956-.552 2.18-.226 2.733.73.553.956.227 2.178-.73 2.733L81.214 59.736c-.366.212-.792.305-1.212.257-1.554-.163-3.818 1.63-5.246 3.486-1.81 2.354-2.467 5.64-1.388 7.67.237.447.896 1.195 1.589 1.39.614.174 1.42.184 1.769.06.782-.278 1.173-.572 1.82-1.546.17-.254.398-.468.664-.621l35.78-20.726c.956-.553 2.179-.226 2.732.73.554.956.228 2.178-.73 2.733L81.597 73.67c-1.055 1.435-2.078 2.016-3.118 2.524-.823.402-1.684.607-2.528.607z" stroke="#33475C" stroke-width="5" stroke-linecap="round" stroke-linejoin="round"/>
        <path d="M71.583 61.042c-2.734 3.556-3.396 8.244-1.685 11.944.861 1.862 3.466 3.473 5.266 3.755.26.04.522.06.785.06.844 0 1.705-.204 2.53-.606 1.04-.507 2.062-1.088 3.116-2.523.02-4.13-2.387-3.24-2.387-3.24-.266.153-.493.367-.663.622-.648.974-1.039 1.268-1.82 1.546-.349.124-1.156.112-1.769-.06-.693-.196-1.353-.944-1.59-1.39-1.078-2.031-.42-5.317 1.388-7.67 1.428-1.857 3.692-3.65 5.246-3.487.42.048.846-.046 1.212-.258.917-2.676-1.503-3.752-1.503-3.752-4.067.059-7.457 4.189-8.126 5.059zM103.353 66.004L90.944 58.84l9-5.196 12.41 7.164-8.832.098z" stroke="#33475C" stroke-width="5" stroke-linecap="round" stroke-linejoin="round"/>
        <path fill="#FF9B7E" d="M55.714 22.253L10.45 48.45l64.7 38.027 45.844-26.533z"/>
        <path stroke="#33475C" stroke-linecap="round" stroke-linejoin="round" d="M55.714 22.253L10.45 48.45l64.7 38.027 45.844-26.533z"/>
        <path d="M75.15 88.284s-8.319 1.211-7.64 9.235c.63 7.464 7.64 1.887 7.64 1.887l43.118-24.956V63.328L75.15 88.284z" fill="#EAF0F6"/>
        <path d="M75.15 88.284s-8.319 1.211-7.64 9.235c.63 7.464 7.64 1.887 7.64 1.887l43.118-24.956V63.328L75.15 88.284z" stroke="#33475C" stroke-linecap="round" stroke-linejoin="round"/>
        <path d="M69.469 104.337s-.415-.122-.958-.553L6.337 67.924C4.466 66.515 2.5 63.937 2.5 59.274c0-8.89 7.95-10.825 7.95-10.825l12.972 7.58L75.15 86.476s-8.308 1.657-9.342 8.138c-.903 5.67 1.746 8.618 2.703 9.17" fill="#FF7A53"/>
        <path d="M69.469 104.337s-.415-.122-.958-.553L6.337 67.924C4.466 66.515 2.5 63.937 2.5 59.274c0-8.89 7.95-10.825 7.95-10.825l12.972 7.58L75.15 86.476s-8.308 1.657-9.342 8.138c-.903 5.67 1.746 8.618 2.703 9.17" stroke="#33475C" stroke-linecap="round" stroke-linejoin="round"/>
        <path fill="#F9D28C" d="M60.195 2.5L22.693 24.215 79.63 57.761l38.084-22.053z"/>
        <path stroke="#33475C" stroke-linecap="round" stroke-linejoin="round" d="M60.195 2.5L22.693 24.215 79.63 57.761l38.084-22.053z"/>
        <path d="M79.63 59.57s-8.063 1.192-7.64 9.233c.541 10.294 7.64 1.888 7.64 1.888l35.358-20.476V39.093L79.63 59.57z" fill="#EAF0F6"/>
        <path d="M79.63 59.57s-8.063 1.192-7.64 9.233c.541 10.294 7.64 1.888 7.64 1.888l35.358-20.476V39.093L79.63 59.57z" stroke="#33475C" stroke-linecap="round" stroke-linejoin="round"/>
        <path d="M73.95 75.622s-.415-.122-.958-.553L18.578 43.69c-1.87-1.409-3.836-3.988-3.836-8.65 0-8.89 7.95-10.825 7.95-10.825l12.97 7.58L79.63 57.761s-8.307 1.657-9.341 8.138c-.903 5.67 1.746 8.618 2.703 9.17" fill="#F6C364"/>
        <path d="M73.95 75.622s-.415-.122-.958-.553L18.578 43.69c-1.87-1.409-3.836-3.988-3.836-8.65 0-8.89 7.95-10.825 7.95-10.825l12.97 7.58L79.63 57.761s-8.307 1.657-9.341 8.138c-.903 5.67 1.746 8.618 2.703 9.17" stroke="#33475C" stroke-linecap="round" stroke-linejoin="round"/>
        <path d="M70.995 105.33c-.246 0-.499-.017-.757-.057-1.817-.284-3.412-1.642-4.377-3.726-1.804-3.901-1.105-8.846 1.78-12.598 2.515-3.271 5.145-3.83 7.145-3.574l44.091-25.51c.957-.553 2.18-.225 2.734.73.552.956.227 2.18-.73 2.733l-44.73 25.879c-.453.26-.99.335-1.493.207-.909-.23-2.165-.213-3.846 1.973-1.957 2.547-2.489 5.955-1.32 8.48.376.813.75 1.143 1.337 1.338.41.137 1.037-.036 1.58-.336.553-.305 1.493-1.116 2.098-1.626l.362-.305c.088-.072.18-.136.278-.193l43.402-25.1c.956-.554 2.18-.227 2.733.729.553.956.228 2.18-.728 2.733L77.302 102.12l-.216.18c-1.236 1.043-2.434 2.015-3.513 2.456-.636.26-1.544.575-2.578.575" fill="#FF7A53"/>
        <path d="M70.995 105.33c-.246 0-.499-.017-.757-.057-1.817-.284-3.412-1.642-4.377-3.726-1.804-3.901-1.105-8.846 1.78-12.598 2.515-3.271 5.145-3.83 7.145-3.574l44.091-25.51c.957-.553 2.18-.225 2.734.73.552.956.227 2.18-.73 2.733l-44.73 25.879c-.453.26-.99.335-1.493.207-.909-.23-2.165-.213-3.846 1.973-1.957 2.547-2.489 5.955-1.32 8.48.376.813.75 1.143 1.337 1.338.41.137 1.037-.036 1.58-.336.553-.305 1.493-1.116 2.098-1.626l.362-.305c.088-.072.18-.136.278-.193l43.402-25.1c.956-.554 2.18-.227 2.733.729.553.956.228 2.18-.728 2.733L77.302 102.12l-.216.18c-1.236 1.043-2.434 2.015-3.513 2.456-.636.26-1.544.575-2.578.575z" stroke="#33475C" stroke-linecap="round" stroke-linejoin="round"/>
        <path d="M67.642 88.948c-2.885 3.753-3.584 8.698-1.781 12.599.964 2.085 2.56 3.443 4.377 3.725.258.04.51.058.757.058 1.034 0 1.942-.314 2.579-.573 1.078-.442 2.276-1.415 3.512-2.457l.216-.18c.232-3.047-2.432-3.181-2.432-3.181l-.362.304c-.606.51-1.545 1.322-2.098 1.626-.545.3-1.171.472-1.581.335-.586-.194-.962-.524-1.337-1.336-1.168-2.526-.637-5.934 1.32-8.481 1.682-2.186 2.937-2.201 3.845-1.972.505.127 1.042.053 1.494-.209.956-3.27-1.364-3.832-1.364-3.832-2-.255-4.63.303-7.145 3.575" fill="#FF7A53"/>
        <path d="M67.642 88.948c-2.885 3.753-3.584 8.698-1.781 12.599.964 2.085 2.56 3.443 4.377 3.725.258.04.51.058.757.058 1.034 0 1.942-.314 2.579-.573 1.078-.442 2.276-1.415 3.512-2.457l.216-.18c.232-3.047-2.432-3.181-2.432-3.181l-.362.304c-.606.51-1.545 1.322-2.098 1.626-.545.3-1.171.472-1.581.335-.586-.194-.962-.524-1.337-1.336-1.168-2.526-.637-5.934 1.32-8.481 1.682-2.186 2.937-2.201 3.845-1.972.505.127 1.042.053 1.494-.209.956-3.27-1.364-3.832-1.364-3.832-2-.255-4.63.303-7.145 3.575z" stroke="#33475C" stroke-linecap="round" stroke-linejoin="round"/>
        <path fill="#F9D28C" d="M60.194 2.5L22.692 24.215 79.63 57.76l38.084-22.052z"/>
        <path stroke="#33475C" stroke-linecap="round" stroke-linejoin="round" d="M60.194 2.5L22.692 24.215 79.63 57.76l38.084-22.052z"/>
        <path fill="#FDF0D9" d="M61.464 47.058L99.372 25.12 78.547 13.096 40.849 34.912z"/>
        <path stroke="#33475C" stroke-linecap="round" stroke-linejoin="round" d="M61.464 47.058L99.372 25.12 78.547 13.096 40.849 34.912z"/>
        <path d="M58.584 29.57c-.109-.365-.578-.524-.94-.408-.362.116-.626.428-.825.753-.888 1.452-.764 3.454.296 4.785.226.284.528.555.89.56.514.006.864-.504 1.103-.959 1.016-1.93 1.826-3.968 2.411-6.068l-.192 2.525c-.038.511.257 1.265.71 1.025.321-1.136 1.09-2.14 2.103-2.748-.12 1.078-.018 2.18.298 3.218 1.451-1.426 2.67-3.089 3.591-4.903.588-.102.626 1.111 1.222 1.141.334.017.526-.36.674-.662.648-1.315 1.993-2.114 3.268-2.84l4.436-2.524M67.932 38.927l2.236-2.027c-.142.264.205.574.5.52.295-.055.502-.313.681-.554l1.403-1.882.452 1.054c.657-1.03 1.538-1.916 2.563-2.579l.337 1.175c.651-.816 1.382-1.568 2.18-2.242l.208.747c.587-1.037 1.264-2.023 2.021-2.944-.126.397.019.864.346 1.12l1.877-2.016M65.227 36.676c.925-1.196 1.69-2.517 2.265-3.916.327.682.567 1.404.712 2.146.957-1.06 1.857-2.172 2.693-3.331-.414.448-.188 1.302.394 1.487.64-1.197 1.561-2.241 2.666-3.026-.095.609.007 1.248.288 1.798.425-1.136 1.003-2.214 1.711-3.197l.526 1.018 1.842-2.6" stroke="#33475C" stroke-linecap="round" stroke-linejoin="round"/>
        <path d="M75.95 76.802c-.264 0-.526-.02-.785-.062-1.8-.28-4.405-1.892-5.266-3.754-1.711-3.7-1.05-8.389 1.685-11.945.669-.87 4.059-5 8.126-5.057l35.526-20.629c.956-.552 2.18-.226 2.733.73.553.956.227 2.178-.73 2.733L81.214 59.736c-.366.212-.792.305-1.212.257-1.554-.163-3.818 1.63-5.246 3.486-1.81 2.354-2.467 5.64-1.388 7.67.237.447.896 1.195 1.589 1.39.614.174 1.42.184 1.769.06.782-.278 1.173-.572 1.82-1.546.17-.254.398-.468.664-.621l35.78-20.726c.956-.553 2.179-.226 2.732.73.554.956.228 2.178-.73 2.733L81.597 73.67c-1.055 1.435-2.078 2.016-3.118 2.524-.823.402-1.684.607-2.528.607" fill="#F6C364"/>
        <path d="M75.95 76.802c-.264 0-.526-.02-.785-.062-1.8-.28-4.405-1.892-5.266-3.754-1.711-3.7-1.05-8.389 1.685-11.945.669-.87 4.059-5 8.126-5.057l35.526-20.629c.956-.552 2.18-.226 2.733.73.553.956.227 2.178-.73 2.733L81.214 59.736c-.366.212-.792.305-1.212.257-1.554-.163-3.818 1.63-5.246 3.486-1.81 2.354-2.467 5.64-1.388 7.67.237.447.896 1.195 1.589 1.39.614.174 1.42.184 1.769.06.782-.278 1.173-.572 1.82-1.546.17-.254.398-.468.664-.621l35.78-20.726c.956-.553 2.179-.226 2.732.73.554.956.228 2.178-.73 2.733L81.597 73.67c-1.055 1.435-2.078 2.016-3.118 2.524-.823.402-1.684.607-2.528.607z" stroke="#33475C" stroke-linecap="round" stroke-linejoin="round"/>
        <path d="M71.583 61.042c-2.734 3.556-3.396 8.244-1.685 11.944.861 1.862 3.466 3.473 5.266 3.755.26.04.522.06.785.06.844 0 1.705-.204 2.53-.606 1.04-.507 2.062-1.088 3.116-2.523.02-4.13-2.387-3.24-2.387-3.24-.266.153-.493.367-.663.622-.648.974-1.039 1.268-1.82 1.546-.349.124-1.156.112-1.769-.06-.693-.196-1.353-.944-1.59-1.39-1.078-2.031-.42-5.317 1.388-7.67 1.428-1.857 3.692-3.65 5.246-3.487.42.048.846-.046 1.212-.258.917-2.676-1.503-3.752-1.503-3.752-4.067.059-7.457 4.189-8.126 5.059" fill="#F6C364"/>
        <path d="M71.583 61.042c-2.734 3.556-3.396 8.244-1.685 11.944.861 1.862 3.466 3.473 5.266 3.755.26.04.522.06.785.06.844 0 1.705-.204 2.53-.606 1.04-.507 2.062-1.088 3.116-2.523.02-4.13-2.387-3.24-2.387-3.24-.266.153-.493.367-.663.622-.648.974-1.039 1.268-1.82 1.546-.349.124-1.156.112-1.769-.06-.693-.196-1.353-.944-1.59-1.39-1.078-2.031-.42-5.317 1.388-7.67 1.428-1.857 3.692-3.65 5.246-3.487.42.048.846-.046 1.212-.258.917-2.676-1.503-3.752-1.503-3.752-4.067.059-7.457 4.189-8.126 5.059z" stroke="#33475C" stroke-linecap="round" stroke-linejoin="round"/>
        <path fill="#40CEBB" d="M103.353 66.004L90.944 58.84l9-5.196 12.41 7.164-8.832.098z"/>
        <path stroke="#33475C" stroke-linecap="round" stroke-linejoin="round" d="M103.353 66.004L90.944 58.84l9-5.196 12.41 7.164-8.832.098z"/>
    </g>
</svg>
