<svg xmlns="http://www.w3.org/2000/svg" viewBox="0 0 107.39 181">
    <g fill="none" fill-rule="evenodd">
        <path d="M106.006 148.067c1.842 1.063 1.842 2.803 0 3.867l-48.963 28.268c-1.842 1.064-4.856 1.064-6.698 0L1.38 151.934c-1.841-1.064-1.841-2.804 0-3.867l48.964-28.27c1.842-1.063 4.856-1.063 6.698 0l48.963 28.27z" fill="#00A4BD" opacity=".2"/>
        <path d="M74.356 148.445V97.254h-41.75v51.196c.004 3.09 2.036 6.18 6.096 8.522 8.128 4.693 21.43 4.693 29.557 0 4.06-2.343 6.092-5.432 6.096-8.522h.001v-.005z" stroke="#33475C" stroke-width="5" stroke-linecap="round" stroke-linejoin="round"/>
        <path d="M68.26 88.72c-8.129-4.691-21.43-4.691-29.559 0-8.128 4.694-8.128 12.374 0 17.066 8.129 4.694 21.43 4.694 29.559 0 8.128-4.692 8.128-12.372 0-17.065zM53.481 141.8c4.596 0 8.996 1.019 12.072 2.794 2.092 1.207 3.391 2.68 3.391 3.846 0 1.165-1.299 2.638-3.39 3.845-3.077 1.777-7.477 2.795-12.074 2.795-4.596 0-8.996-1.018-12.072-2.795-2.092-1.207-3.39-2.68-3.39-3.845 0-1.164 1.298-2.64 3.39-3.846 3.076-1.775 7.476-2.794 12.073-2.794M65.553 125.264c-.174-.1-.366-.188-.549-.284-1.658 1.505-4.17 1.989-6.45 1.748-2.665-.28-5.176-1.35-7.77-2.02-1.925-.498-3.93-.775-5.904-.543-1.07.124-2.15.447-3.146.93-.107.058-.224.11-.327.17-2.09 1.207-3.39 2.68-3.39 3.846 0 1.165 1.3 2.638 3.39 3.845 3.077 1.776 7.477 2.794 12.074 2.794 4.595 0 8.996-1.018 12.072-2.794 2.092-1.207 3.391-2.68 3.391-3.845s-1.299-2.64-3.39-3.846z" stroke="#33475C" stroke-width="5" stroke-linecap="round" stroke-linejoin="round"/>
        <path d="M38.018 148.45c.008 1.163 1.305 2.631 3.39 3.835 3.076 1.776 7.476 2.795 12.073 2.795 4.596 0 8.996-1.019 12.072-2.795 2.085-1.204 3.382-2.672 3.39-3.835l.001-.01v-23.093c0-1.289-2.19-2.292-4.038-2.39-1.849-.1-3.657.5-5.14 1.32-1.483.822-2.715 1.862-4.048 2.815-2.179 1.555-4.649 2.885-7.32 3.94-1.344.531-2.762.998-4.27 1.158-1.508.16-3.129-.013-4.367-.67-1.036-.548-1.743-1.468-1.744-2.397v19.316l.001.011zM32.605 104.706c0-2.72 2.032-5.44 6.097-7.504 4.063-2.063 9.422-3.096 14.78-3.096 5.356 0 10.714 1.033 14.777 3.096 4.063 2.063 6.094 4.78 6.097 7.499V98.26c0-.133-.025-.265-.032-.398-1.124-1.146-2.644-2.288-4.706-3.335-4.344-2.206-10.076-3.421-16.137-3.421-6.063 0-11.794 1.215-16.138 3.42-2.062 1.048-3.583 2.19-4.706 3.337-.008.13-.032.26-.032.39v6.453z" stroke="#33475C" stroke-width="5" stroke-linecap="round" stroke-linejoin="round"/>
        <path d="M76.604 104.706c0-1.49.221-3.83-1.728-6.218-.167-.194-.327-.39-.516-.584 0-.002-.002-.003-.004-.005-.012-.011-.02-.024-.032-.037.007.133.032.265.032.398v6.441l-.038.44v.006l-.009.097-.01.002c-.246 2.538-2.244 5.037-6.04 6.965-4.063 2.063-9.42 3.095-14.778 3.095-5.357 0-10.716-1.032-14.779-3.095-3.796-1.928-5.799-4.428-6.045-6.966l-.005-.001-.047-.543v.005-6.452c0-.131.024-.261.032-.391-.205.209-.375.418-.554.627-1.947 2.387-1.726 4.728-1.726 6.216 0 1.502-.24 3.869 1.764 6.277.134.156.267.31.417.466l.027.03.04-.204v.243c1.126 1.158 2.657 2.31 4.738 3.368 4.344 2.206 10.075 3.42 16.138 3.42 6.061 0 11.793-1.214 16.137-3.42 2.081-1.057 3.612-2.21 4.738-3.368v-.243l.04.204c.011-.01.02-.021.03-.033.148-.154.281-.308.414-.462 2.005-2.408 1.764-4.776 1.764-6.278z" stroke="#33475C" stroke-width="5" stroke-linecap="round" stroke-linejoin="round"/>
        <path d="M67.972 112.712s-8.248 15.57-3.58 22.454c0 0 .071-.64 1.307-2.38 0 0-2.14-7.604 3.653-18.52l-1.38-1.554z" stroke="#33475C" stroke-width="5" stroke-linecap="round" stroke-linejoin="round"/>
        <path d="M77.138 107.561s-1.824-2.044-7.505 4.458l-.622 2.126 5.064-2.129 2.796-1.819.731-.793-.464-1.843z" stroke="#33475C" stroke-width="5" stroke-linecap="round" stroke-linejoin="round"/>
        <path d="M69.633 112.02s6.12-1.785 7.505-4.459c0 0 1.581 1.794 1.145 2.967 0 0-2.237 2.65-7.933 4.336l-1.338-.719.621-2.126zM57.01 116.582s.9-3.77 11.19-4.022l-4.995 4.063-5.032 1.236-1.163-1.277z" stroke="#33475C" stroke-width="5" stroke-linecap="round" stroke-linejoin="round"/>
        <path d="M68.2 112.56s-6.297 3.336-11.19 4.021c0 0-.282 2.622 1.082 2.7 0 0 6.35-1.436 10.046-3.969l.062-2.753z" stroke="#33475C" stroke-width="5" stroke-linecap="round" stroke-linejoin="round"/>
        <path d="M67.472 112.547s-.55 2.235.466 2.714c0 0 1.034.246 1.862-.862 0 0 .525-1.344 0-2.934 0 0-1.297-.05-2.328 1.082z" stroke="#33475C" stroke-width="5" stroke-linecap="round" stroke-linejoin="round"/>
        <path d="M79.77 135.922c.677.497 1.562 1.196 2.354 1.98.19-2.516-.243-5.077-1.312-7.376-.978-2.102-2.4-3.853-3.658-5.397l-.364-.448c-2.04-2.52-3.99-5.163-5.789-7.853-.306-.46-1.296-2.517-1.208-3.117l-1.334 1.196c-.252 1.599.64 3.135 1.526 4.49 1.723 2.633 3.567 5.188 5.524 7.653 1.225 1.544 2.508 3.076 3.321 4.87.57 1.257.883 2.624.94 4.002zM74.356 148.44c0-3.094-2.032-6.188-6.097-8.533-8.128-4.694-21.429-4.694-29.557 0-4.065 2.345-6.097 5.44-6.097 8.532M67.113 93.495s-19.374 5.61-17.544 22.422c0 0 17.746-6.173 17.544-22.422zM35.07 85.597s-.56 13.397 10.423 15.797c0 0-.14-12.49-10.423-15.797zM55.825 75.755c-.076 0-.153-.006-.23-.018-.82-.126-1.38-.891-1.254-1.71.074-.5 1.695-12.347-10.23-15.684-8.636-2.42-18.341 6.788-18.438 6.88-.598.576-1.546.555-2.121-.04-.574-.598-.555-1.547.042-2.121.446-.43 11.05-10.484 21.327-7.608 14.51 4.06 12.407 18.88 12.384 19.029-.114.742-.752 1.272-1.48 1.272z" stroke="#33475C" stroke-width="5" stroke-linecap="round" stroke-linejoin="round"/>
        <path d="M55.597 67.406c-.744 0-1.39-.554-1.486-1.312-.097-.765-2.264-18.837 6.565-26.77.616-.554 1.564-.503 2.118.112.554.616.503 1.566-.113 2.12-7.674 6.895-5.615 23.991-5.594 24.163.104.821-.478 1.572-1.3 1.675-.064.008-.128.012-.19.012z" stroke="#33475C" stroke-width="5" stroke-linecap="round" stroke-linejoin="round"/>
        <path d="M77.256 27.396c-12.313.82-22.866 9.685-19.28 19.43-.001.004-2.655 6.787 5.089 8.78 8.019 2.065 13.676-3.456 16.555-6.894.43-.51 1.059-1.303 1.893-2.239.3-.336.633-.693.988-1.06l.122-.125c.347-.354.716-.718 1.114-1.089l.05-.049c2.637-2.442 6.415-5.122 11.52-6.542.186-.052.37-.106.559-.154.075-.019.148-.043.222-.06l.059-.018c.037-.008.07-.02.107-.029v.005c1.447-.314 2.914-.293 4.402.285 0 0-11.087-11.06-23.4-10.24zM76.431 32.678s-13.738.846-18.455 14.147M61.718 144.897c-.076 0-.15-.004-.228-.013-11.053-1.242-18.21-12.36-19.334-22.192-1.11-9.712 1.867-18.98 5.57-29.22l.047-.13c3.214-8.89 6.54-18.083 5.832-27.283-.777-10.13-6.695-19.634-15.444-24.802-.95-.56-1.266-1.788-.705-2.739.563-.949 1.79-1.265 2.74-.704 9.855 5.821 16.522 16.526 17.398 27.938.771 10.058-2.702 19.663-6.06 28.951l-.047.13c-3.53 9.757-6.367 18.554-5.357 27.406.947 8.296 6.81 17.66 15.808 18.671 1.097.123 1.887 1.113 1.764 2.211-.114 1.021-.98 1.776-1.984 1.776z" stroke="#33475C" stroke-width="5" stroke-linecap="round" stroke-linejoin="round"/>
        <path d="M57.523 6.812S42.377 18.537 43.347 39.865c0 0 20.37-4.66 14.176-33.053zM33.545 2.5s-4.848 19.896 7.009 29.827c0 0 3.76-18.93-7.01-29.827zM43.347 39.865s6.66-10.468 9.751-20.14M54.287 72.445c5.6-4.92 12.19-9.4 19.635-9.773 1.495-.076 3.023.024 4.425.548 3.065 1.147 5.109 4.22 5.776 7.424.668 3.204.153 6.536-.618 9.717-.672 2.765-1.535 5.48-2.4 8.19-6.774-2.655-14.345-1.436-21.62-1.283-4.47.094-9.412-.437-12.477-3.693-1.357-1.44-2.197-3.62-1.353-5.41 2.08-4.41 7.257-5.073 8.632-5.72zM54.287 72.445s11.095-1.592 21.07 5.865M46.108 59.804c-.822-3.17-4.382-3.387-4.382-3.387-6.628-13.57-26.542 6.024-26.542 6.024l.001.002c-.729.638-1.442 1.29-2.13 1.95C7.961 69.276 3.5 72.1 3.5 72.1c4.17 2.957 18.394 4.445 26.007 2.63l.001.001c12.451-2.438 18.062-9.294 16.6-14.926zM24.634 64.143s8.465-8.038 17.093-7.726M8.444 30.64s17.348-4.559 27.199 1.3c9.851 5.855 3.153 11.791.227 12.637-2.927.846-17.087 3.829-27.426-13.936zM20.318 34.362s18.812.393 19.96 6.406M32.605 97.254c0 3.093 2.032 6.186 6.097 8.532 8.128 4.694 21.43 4.694 29.557 0 4.063-2.345 6.094-5.435 6.097-8.526v-.006" stroke="#33475C" stroke-width="5" stroke-linecap="round" stroke-linejoin="round"/>
        <path d="M76.604 104.706c0-1.49.221-3.83-1.728-6.218-.167-.194-.327-.39-.516-.584 0-.002-.002-.003-.004-.005-.012-.011-.02-.024-.032-.037.007.133.032.265.032.398v6.441l-.038.44v.006l-.009.097-.01.002c-.246 2.538-2.244 5.037-6.04 6.965-4.063 2.063-9.42 3.095-14.778 3.095-5.357 0-10.716-1.032-14.779-3.095-3.796-1.928-5.799-4.428-6.045-6.966l-.005-.001-.047-.543v.005-6.452c0-.131.024-.261.032-.391-.205.209-.375.418-.554.627-1.947 2.387-1.726 4.728-1.726 6.216 0 1.502-.24 3.869 1.764 6.277.134.156.267.31.417.466l.027.03.04-.204v.243c1.126 1.158 2.657 2.31 4.738 3.368 4.344 2.206 10.075 3.42 16.138 3.42 6.061 0 11.793-1.214 16.137-3.42 2.081-1.057 3.612-2.21 4.738-3.368v-.243l.04.204c.011-.01.02-.021.03-.033.148-.154.281-.308.414-.462 2.005-2.408 1.764-4.776 1.764-6.278z" stroke="#33475C" stroke-width="5" stroke-linecap="round" stroke-linejoin="round"/>
        <path d="M67.972 112.712s-8.248 15.57-3.58 22.454c0 0 .071-.64 1.307-2.38 0 0-2.14-7.604 3.653-18.52l-1.38-1.554z" stroke="#33475C" stroke-width="5" stroke-linecap="round" stroke-linejoin="round"/>
        <path d="M77.138 107.561s-1.824-2.044-7.505 4.458l-.622 2.126 5.064-2.129 2.796-1.819.731-.793-.464-1.843z" stroke="#33475C" stroke-width="5" stroke-linecap="round" stroke-linejoin="round"/>
        <path d="M69.633 112.02s6.12-1.785 7.505-4.459c0 0 1.581 1.794 1.145 2.967 0 0-2.237 2.65-7.933 4.336l-1.338-.719.621-2.126zM57.01 116.582s.9-3.77 11.19-4.022l-4.995 4.063-5.032 1.236-1.163-1.277z" stroke="#33475C" stroke-width="5" stroke-linecap="round" stroke-linejoin="round"/>
        <path d="M68.2 112.56s-6.297 3.336-11.19 4.021c0 0-.282 2.622 1.082 2.7 0 0 6.35-1.436 10.046-3.969l.062-2.753z" stroke="#33475C" stroke-width="5" stroke-linecap="round" stroke-linejoin="round"/>
        <path d="M67.472 112.547s-.55 2.235.466 2.714c0 0 1.034.246 1.862-.862 0 0 .525-1.344 0-2.934 0 0-1.297-.05-2.328 1.082z" stroke="#33475C" stroke-width="5" stroke-linecap="round" stroke-linejoin="round"/>
        <path d="M79.77 135.922c.677.497 1.562 1.196 2.354 1.98.19-2.516-.243-5.077-1.312-7.376-.978-2.102-2.4-3.853-3.658-5.397l-.364-.448c-2.04-2.52-3.99-5.163-5.789-7.853-.306-.46-1.296-2.517-1.208-3.117l-1.334 1.196c-.252 1.599.64 3.135 1.526 4.49 1.723 2.633 3.567 5.188 5.524 7.653 1.225 1.544 2.508 3.076 3.321 4.87.57 1.257.883 2.624.94 4.002zM55.718 127.092c-2.179 1.556-4.649 2.886-7.32 3.94-1.344.532-2.762.998-4.27 1.159M61.666 44.542c0-3.173-2.572-5.745-5.745-5.745-.351 0-.694.033-1.027.094-.366-2.822-2.776-5.001-5.696-5.001s-5.328 2.177-5.695 4.996c-.354-.068-.72-.105-1.093-.105-3.173 0-5.744 2.572-5.744 5.744 0 2.298 1.35 4.28 3.299 5.2-.473.835-.744 1.798-.744 2.827 0 3.173 2.57 5.744 5.744 5.744 1.687 0 3.205-.728 4.256-1.886 1.05 1.158 2.568 1.886 4.256 1.886 3.172 0 5.744-2.571 5.744-5.744 0-1.04-.278-2.015-.761-2.857 1.898-.937 3.206-2.892 3.206-5.153z" stroke="#33475C" stroke-width="5" stroke-linecap="round" stroke-linejoin="round"/>
        <path d="M50.85 42.854c0 .898-.729 1.628-1.628 1.628-.899 0-1.628-.73-1.628-1.628 0-.899.73-1.628 1.628-1.628.9 0 1.628.73 1.628 1.628zM47.307 45.411c0 .899-.729 1.628-1.628 1.628-.898 0-1.628-.729-1.628-1.628 0-.899.73-1.628 1.628-1.628.9 0 1.628.729 1.628 1.628zM54.279 45.411c0 .899-.729 1.628-1.628 1.628-.899 0-1.628-.729-1.628-1.628 0-.899.729-1.628 1.628-1.628.899 0 1.628.729 1.628 1.628zM52.942 49.33c0 .9-.729 1.629-1.628 1.629-.898 0-1.628-.73-1.628-1.628 0-.898.73-1.628 1.628-1.628.9 0 1.628.73 1.628 1.628zM48.758 49.33c0 .9-.729 1.629-1.628 1.629-.899 0-1.628-.73-1.628-1.628 0-.898.73-1.628 1.628-1.628.9 0 1.628.73 1.628 1.628z" stroke="#33475C" stroke-width="5" stroke-linecap="round" stroke-linejoin="round"/>
        <path d="M74.356 148.445V97.254h-41.75v51.196c.004 3.09 2.036 6.18 6.096 8.522 8.128 4.693 21.43 4.693 29.557 0 4.06-2.343 6.092-5.432 6.096-8.522h.001v-.005z" fill="#EAF0F6"/>
        <path d="M74.356 148.445V97.254h-41.75v51.196c.004 3.09 2.036 6.18 6.096 8.522 8.128 4.693 21.43 4.693 29.557 0 4.06-2.343 6.092-5.432 6.096-8.522h.001v-.005z" stroke="#33475C" stroke-linecap="round" stroke-linejoin="round"/>
        <path d="M68.26 88.72c-8.129-4.691-21.43-4.691-29.559 0-8.128 4.694-8.128 12.374 0 17.066 8.129 4.694 21.43 4.694 29.559 0 8.128-4.692 8.128-12.372 0-17.065" fill="#EAF0F6"/>
        <path d="M68.26 88.72c-8.129-4.691-21.43-4.691-29.559 0-8.128 4.694-8.128 12.374 0 17.066 8.129 4.694 21.43 4.694 29.559 0 8.128-4.692 8.128-12.372 0-17.065zM53.481 141.8c4.596 0 8.996 1.019 12.072 2.794 2.092 1.207 3.391 2.68 3.391 3.846 0 1.165-1.299 2.638-3.39 3.845-3.077 1.777-7.477 2.795-12.074 2.795-4.596 0-8.996-1.018-12.072-2.795-2.092-1.207-3.39-2.68-3.39-3.845 0-1.164 1.298-2.64 3.39-3.846 3.076-1.775 7.476-2.794 12.073-2.794" stroke="#33475C" stroke-linecap="round" stroke-linejoin="round"/>
        <path d="M65.553 125.264c-.174-.1-.366-.188-.549-.284-1.658 1.505-4.17 1.989-6.45 1.748-2.665-.28-5.176-1.35-7.77-2.02-1.925-.498-3.93-.775-5.904-.543-1.07.124-2.15.447-3.146.93-.107.058-.224.11-.327.17-2.09 1.207-3.39 2.68-3.39 3.846 0 1.165 1.3 2.638 3.39 3.845 3.077 1.776 7.477 2.794 12.074 2.794 4.595 0 8.996-1.018 12.072-2.794 2.092-1.207 3.391-2.68 3.391-3.845s-1.299-2.64-3.39-3.846" fill="#BEE7EE"/>
        <path d="M65.553 125.264c-.174-.1-.366-.188-.549-.284-1.658 1.505-4.17 1.989-6.45 1.748-2.665-.28-5.176-1.35-7.77-2.02-1.925-.498-3.93-.775-5.904-.543-1.07.124-2.15.447-3.146.93-.107.058-.224.11-.327.17-2.09 1.207-3.39 2.68-3.39 3.846 0 1.165 1.3 2.638 3.39 3.845 3.077 1.776 7.477 2.794 12.074 2.794 4.595 0 8.996-1.018 12.072-2.794 2.092-1.207 3.391-2.68 3.391-3.845s-1.299-2.64-3.39-3.846z" stroke="#33475C" stroke-linecap="round" stroke-linejoin="round"/>
        <path d="M38.018 148.45c.008 1.163 1.305 2.631 3.39 3.835 3.076 1.776 7.476 2.795 12.073 2.795 4.596 0 8.996-1.019 12.072-2.795 2.085-1.204 3.382-2.672 3.39-3.835l.001-.01v-23.093c0-1.289-2.19-2.292-4.038-2.39-1.849-.1-3.657.5-5.14 1.32-1.483.822-2.715 1.862-4.048 2.815-2.179 1.555-4.649 2.885-7.32 3.94-1.344.531-2.762.998-4.27 1.158-1.508.16-3.129-.013-4.367-.67-1.036-.548-1.743-1.468-1.744-2.397v19.316l.001.011z" fill="#7CD1DF"/>
        <path d="M38.018 148.45c.008 1.163 1.305 2.631 3.39 3.835 3.076 1.776 7.476 2.795 12.073 2.795 4.596 0 8.996-1.019 12.072-2.795 2.085-1.204 3.382-2.672 3.39-3.835l.001-.01v-23.093c0-1.289-2.19-2.292-4.038-2.39-1.849-.1-3.657.5-5.14 1.32-1.483.822-2.715 1.862-4.048 2.815-2.179 1.555-4.649 2.885-7.32 3.94-1.344.531-2.762.998-4.27 1.158-1.508.16-3.129-.013-4.367-.67-1.036-.548-1.743-1.468-1.744-2.397v19.316l.001.011z" stroke="#33475C" stroke-linecap="round" stroke-linejoin="round"/>
        <g opacity=".2">
            <path d="M32.605 104.706c0-2.72 2.032-5.44 6.097-7.504 4.063-2.063 9.422-3.096 14.78-3.096 5.356 0 10.714 1.033 14.777 3.096 4.063 2.063 6.094 4.78 6.097 7.499V98.26c0-.133-.025-.265-.032-.398-1.124-1.146-2.644-2.288-4.706-3.335-4.344-2.206-10.076-3.421-16.137-3.421-6.063 0-11.794 1.215-16.138 3.42-2.062 1.048-3.583 2.19-4.706 3.337-.008.13-.032.26-.032.39v6.453z" fill="#FF8F52"/>
            <path d="M32.605 104.706c0-2.72 2.032-5.44 6.097-7.504 4.063-2.063 9.422-3.096 14.78-3.096 5.356 0 10.714 1.033 14.777 3.096 4.063 2.063 6.094 4.78 6.097 7.499V98.26c0-.133-.025-.265-.032-.398-1.124-1.146-2.644-2.288-4.706-3.335-4.344-2.206-10.076-3.421-16.137-3.421-6.063 0-11.794 1.215-16.138 3.42-2.062 1.048-3.583 2.19-4.706 3.337-.008.13-.032.26-.032.39v6.453z" stroke="#33475C" stroke-linecap="round" stroke-linejoin="round"/>
        </g>
        <path d="M76.604 104.706c0-1.49.221-3.83-1.728-6.218-.167-.194-.327-.39-.516-.584 0-.002-.002-.003-.004-.005-.012-.011-.02-.024-.032-.037.007.133.032.265.032.398v6.441l-.038.44v.006l-.009.097-.01.002c-.246 2.538-2.244 5.037-6.04 6.965-4.063 2.063-9.42 3.095-14.778 3.095-5.357 0-10.716-1.032-14.779-3.095-3.796-1.928-5.799-4.428-6.045-6.966l-.005-.001-.047-.543v.005-6.452c0-.131.024-.261.032-.391-.205.209-.375.418-.554.627-1.947 2.387-1.726 4.728-1.726 6.216 0 1.502-.24 3.869 1.764 6.277.134.156.267.31.417.466l.027.03.04-.204v.243c1.126 1.158 2.657 2.31 4.738 3.368 4.344 2.206 10.075 3.42 16.138 3.42 6.061 0 11.793-1.214 16.137-3.42 2.081-1.057 3.612-2.21 4.738-3.368v-.243l.04.204c.011-.01.02-.021.03-.033.148-.154.281-.308.414-.462 2.005-2.408 1.764-4.776 1.764-6.278" fill="#FF8F52"/>
        <path d="M76.604 104.706c0-1.49.221-3.83-1.728-6.218-.167-.194-.327-.39-.516-.584 0-.002-.002-.003-.004-.005-.012-.011-.02-.024-.032-.037.007.133.032.265.032.398v6.441l-.038.44v.006l-.009.097-.01.002c-.246 2.538-2.244 5.037-6.04 6.965-4.063 2.063-9.42 3.095-14.778 3.095-5.357 0-10.716-1.032-14.779-3.095-3.796-1.928-5.799-4.428-6.045-6.966l-.005-.001-.047-.543v.005-6.452c0-.131.024-.261.032-.391-.205.209-.375.418-.554.627-1.947 2.387-1.726 4.728-1.726 6.216 0 1.502-.24 3.869 1.764 6.277.134.156.267.31.417.466l.027.03.04-.204v.243c1.126 1.158 2.657 2.31 4.738 3.368 4.344 2.206 10.075 3.42 16.138 3.42 6.061 0 11.793-1.214 16.137-3.42 2.081-1.057 3.612-2.21 4.738-3.368v-.243l.04.204c.011-.01.02-.021.03-.033.148-.154.281-.308.414-.462 2.005-2.408 1.764-4.776 1.764-6.278z" stroke="#33475C" stroke-linecap="round" stroke-linejoin="round"/>
        <path d="M67.972 112.712s-8.248 15.57-3.58 22.454c0 0 .071-.64 1.307-2.38 0 0-2.14-7.604 3.653-18.52l-1.38-1.554z" fill="#FF8F52"/>
        <path d="M67.972 112.712s-8.248 15.57-3.58 22.454c0 0 .071-.64 1.307-2.38 0 0-2.14-7.604 3.653-18.52l-1.38-1.554z" stroke="#33475C" stroke-linecap="round" stroke-linejoin="round"/>
        <path d="M77.138 107.561s-1.824-2.044-7.505 4.458l-.622 2.126 5.064-2.129 2.796-1.819.731-.793-.464-1.843z" fill="#FF8F52"/>
        <path d="M77.138 107.561s-1.824-2.044-7.505 4.458l-.622 2.126 5.064-2.129 2.796-1.819.731-.793-.464-1.843z" stroke="#33475C" stroke-linecap="round" stroke-linejoin="round"/>
        <path d="M69.633 112.02s6.12-1.785 7.505-4.459c0 0 1.581 1.794 1.145 2.967 0 0-2.237 2.65-7.933 4.336l-1.338-.719.621-2.126z" fill="#FF8F52"/>
        <path d="M69.633 112.02s6.12-1.785 7.505-4.459c0 0 1.581 1.794 1.145 2.967 0 0-2.237 2.65-7.933 4.336l-1.338-.719.621-2.126z" stroke="#33475C" stroke-linecap="round" stroke-linejoin="round"/>
        <path d="M57.01 116.582s.9-3.77 11.19-4.022l-4.995 4.063-5.032 1.236-1.163-1.277z" fill="#FF8F52"/>
        <path d="M57.01 116.582s.9-3.77 11.19-4.022l-4.995 4.063-5.032 1.236-1.163-1.277z" stroke="#33475C" stroke-linecap="round" stroke-linejoin="round"/>
        <path d="M68.2 112.56s-6.297 3.336-11.19 4.021c0 0-.282 2.622 1.082 2.7 0 0 6.35-1.436 10.046-3.969l.062-2.753z" fill="#FF8F52"/>
        <path d="M68.2 112.56s-6.297 3.336-11.19 4.021c0 0-.282 2.622 1.082 2.7 0 0 6.35-1.436 10.046-3.969l.062-2.753z" stroke="#33475C" stroke-linecap="round" stroke-linejoin="round"/>
        <path d="M67.472 112.547s-.55 2.235.466 2.714c0 0 1.034.246 1.862-.862 0 0 .525-1.344 0-2.934 0 0-1.297-.05-2.328 1.082" fill="#FF8F52"/>
        <path d="M67.472 112.547s-.55 2.235.466 2.714c0 0 1.034.246 1.862-.862 0 0 .525-1.344 0-2.934 0 0-1.297-.05-2.328 1.082z" stroke="#33475C" stroke-linecap="round" stroke-linejoin="round"/>
        <path d="M79.77 135.922c.677.497 1.562 1.196 2.354 1.98.19-2.516-.243-5.077-1.312-7.376-.978-2.102-2.4-3.853-3.658-5.397l-.364-.448c-2.04-2.52-3.99-5.163-5.789-7.853-.306-.46-1.296-2.517-1.208-3.117l-1.334 1.196c-.252 1.599.64 3.135 1.526 4.49 1.723 2.633 3.567 5.188 5.524 7.653 1.225 1.544 2.508 3.076 3.321 4.87.57 1.257.883 2.624.94 4.002" fill="#FF8F52"/>
        <path d="M79.77 135.922c.677.497 1.562 1.196 2.354 1.98.19-2.516-.243-5.077-1.312-7.376-.978-2.102-2.4-3.853-3.658-5.397l-.364-.448c-2.04-2.52-3.99-5.163-5.789-7.853-.306-.46-1.296-2.517-1.208-3.117l-1.334 1.196c-.252 1.599.64 3.135 1.526 4.49 1.723 2.633 3.567 5.188 5.524 7.653 1.225 1.544 2.508 3.076 3.321 4.87.57 1.257.883 2.624.94 4.002z" stroke="#33475C" stroke-linecap="round" stroke-linejoin="round"/>
        <path d="M74.356 148.44c0-3.094-2.032-6.188-6.097-8.533-8.128-4.694-21.429-4.694-29.557 0-4.065 2.345-6.097 5.44-6.097 8.532" stroke="#33475C" opacity=".2" stroke-linecap="round" stroke-linejoin="round"/>
        <path d="M67.113 93.495s-19.374 5.61-17.544 22.422c0 0 17.746-6.173 17.544-22.422" fill="#7BDED2"/>
        <path d="M67.113 93.495s-19.374 5.61-17.544 22.422c0 0 17.746-6.173 17.544-22.422z" stroke="#33475C" stroke-linecap="round" stroke-linejoin="round"/>
        <path d="M35.07 85.597s-.56 13.397 10.423 15.797c0 0-.14-12.49-10.423-15.797" fill="#7BDED2"/>
        <path d="M35.07 85.597s-.56 13.397 10.423 15.797c0 0-.14-12.49-10.423-15.797z" stroke="#33475C" stroke-linecap="round" stroke-linejoin="round"/>
        <path d="M55.825 75.755c-.076 0-.153-.006-.23-.018-.82-.126-1.38-.891-1.254-1.71.074-.5 1.695-12.347-10.23-15.684-8.636-2.42-18.341 6.788-18.438 6.88-.598.576-1.546.555-2.121-.04-.574-.598-.555-1.547.042-2.121.446-.43 11.05-10.484 21.327-7.608 14.51 4.06 12.407 18.88 12.384 19.029-.114.742-.752 1.272-1.48 1.272" fill="#7BDED2"/>
        <path d="M55.825 75.755c-.076 0-.153-.006-.23-.018-.82-.126-1.38-.891-1.254-1.71.074-.5 1.695-12.347-10.23-15.684-8.636-2.42-18.341 6.788-18.438 6.88-.598.576-1.546.555-2.121-.04-.574-.598-.555-1.547.042-2.121.446-.43 11.05-10.484 21.327-7.608 14.51 4.06 12.407 18.88 12.384 19.029-.114.742-.752 1.272-1.48 1.272z" stroke="#33475C" stroke-linecap="round" stroke-linejoin="round"/>
        <path d="M55.597 67.406c-.744 0-1.39-.554-1.486-1.312-.097-.765-2.264-18.837 6.565-26.77.616-.554 1.564-.503 2.118.112.554.616.503 1.566-.113 2.12-7.674 6.895-5.615 23.991-5.594 24.163.104.821-.478 1.572-1.3 1.675-.064.008-.128.012-.19.012" fill="#7BDED2"/>
        <path d="M55.597 67.406c-.744 0-1.39-.554-1.486-1.312-.097-.765-2.264-18.837 6.565-26.77.616-.554 1.564-.503 2.118.112.554.616.503 1.566-.113 2.12-7.674 6.895-5.615 23.991-5.594 24.163.104.821-.478 1.572-1.3 1.675-.064.008-.128.012-.19.012z" stroke="#33475C" stroke-linecap="round" stroke-linejoin="round"/>
        <path d="M77.256 27.396c-12.313.82-22.866 9.685-19.28 19.43-.001.004-2.655 6.787 5.089 8.78 8.019 2.065 13.676-3.456 16.555-6.894.43-.51 1.059-1.303 1.893-2.239.3-.336.633-.693.988-1.06l.122-.125c.347-.354.716-.718 1.114-1.089l.05-.049c2.637-2.442 6.415-5.122 11.52-6.542.186-.052.37-.106.559-.154.075-.019.148-.043.222-.06l.059-.018c.037-.008.07-.02.107-.029v.005c1.447-.314 2.914-.293 4.402.285 0 0-11.087-11.06-23.4-10.24" fill="#7BDED2"/>
        <path d="M77.256 27.396c-12.313.82-22.866 9.685-19.28 19.43-.001.004-2.655 6.787 5.089 8.78 8.019 2.065 13.676-3.456 16.555-6.894.43-.51 1.059-1.303 1.893-2.239.3-.336.633-.693.988-1.06l.122-.125c.347-.354.716-.718 1.114-1.089l.05-.049c2.637-2.442 6.415-5.122 11.52-6.542.186-.052.37-.106.559-.154.075-.019.148-.043.222-.06l.059-.018c.037-.008.07-.02.107-.029v.005c1.447-.314 2.914-.293 4.402.285 0 0-11.087-11.06-23.4-10.24z" stroke="#33475C" stroke-linecap="round" stroke-linejoin="round"/>
        <path d="M76.431 32.678s-13.738.846-18.455 14.147" fill="#7BDED2"/>
        <path d="M76.431 32.678s-13.738.846-18.455 14.147" stroke="#33475C" stroke-linecap="round" stroke-linejoin="round"/>
        <path d="M61.718 144.897c-.076 0-.15-.004-.228-.013-11.053-1.242-18.21-12.36-19.334-22.192-1.11-9.712 1.867-18.98 5.57-29.22l.047-.13c3.214-8.89 6.54-18.083 5.832-27.283-.777-10.13-6.695-19.634-15.444-24.802-.95-.56-1.266-1.788-.705-2.739.563-.949 1.79-1.265 2.74-.704 9.855 5.821 16.522 16.526 17.398 27.938.771 10.058-2.702 19.663-6.06 28.951l-.047.13c-3.53 9.757-6.367 18.554-5.357 27.406.947 8.296 6.81 17.66 15.808 18.671 1.097.123 1.887 1.113 1.764 2.211-.114 1.021-.98 1.776-1.984 1.776" fill="#7BDED2"/>
        <path d="M61.718 144.897c-.076 0-.15-.004-.228-.013-11.053-1.242-18.21-12.36-19.334-22.192-1.11-9.712 1.867-18.98 5.57-29.22l.047-.13c3.214-8.89 6.54-18.083 5.832-27.283-.777-10.13-6.695-19.634-15.444-24.802-.95-.56-1.266-1.788-.705-2.739.563-.949 1.79-1.265 2.74-.704 9.855 5.821 16.522 16.526 17.398 27.938.771 10.058-2.702 19.663-6.06 28.951l-.047.13c-3.53 9.757-6.367 18.554-5.357 27.406.947 8.296 6.81 17.66 15.808 18.671 1.097.123 1.887 1.113 1.764 2.211-.114 1.021-.98 1.776-1.984 1.776z" stroke="#33475C" stroke-linecap="round" stroke-linejoin="round"/>
        <path d="M57.523 6.812S42.377 18.537 43.347 39.865c0 0 20.37-4.66 14.176-33.053" fill="#7BDED2"/>
        <path d="M57.523 6.812S42.377 18.537 43.347 39.865c0 0 20.37-4.66 14.176-33.053z" stroke="#33475C" stroke-linecap="round" stroke-linejoin="round"/>
        <path d="M33.545 2.5s-4.848 19.896 7.009 29.827c0 0 3.76-18.93-7.01-29.827" fill="#7BDED2"/>
        <path d="M33.545 2.5s-4.848 19.896 7.009 29.827c0 0 3.76-18.93-7.01-29.827zM43.347 39.865s6.66-10.468 9.751-20.14" stroke="#33475C" stroke-linecap="round" stroke-linejoin="round"/>
        <path d="M54.287 72.445c5.6-4.92 12.19-9.4 19.635-9.773 1.495-.076 3.023.024 4.425.548 3.065 1.147 5.109 4.22 5.776 7.424.668 3.204.153 6.536-.618 9.717-.672 2.765-1.535 5.48-2.4 8.19-6.774-2.655-14.345-1.436-21.62-1.283-4.47.094-9.412-.437-12.477-3.693-1.357-1.44-2.197-3.62-1.353-5.41 2.08-4.41 7.257-5.073 8.632-5.72" fill="#7BDED2"/>
        <path d="M54.287 72.445c5.6-4.92 12.19-9.4 19.635-9.773 1.495-.076 3.023.024 4.425.548 3.065 1.147 5.109 4.22 5.776 7.424.668 3.204.153 6.536-.618 9.717-.672 2.765-1.535 5.48-2.4 8.19-6.774-2.655-14.345-1.436-21.62-1.283-4.47.094-9.412-.437-12.477-3.693-1.357-1.44-2.197-3.62-1.353-5.41 2.08-4.41 7.257-5.073 8.632-5.72zM54.287 72.445s11.095-1.592 21.07 5.865" stroke="#33475C" stroke-linecap="round" stroke-linejoin="round"/>
        <path d="M46.108 59.804c-.822-3.17-4.382-3.387-4.382-3.387-6.628-13.57-26.542 6.024-26.542 6.024l.001.002c-.729.638-1.442 1.29-2.13 1.95C7.961 69.276 3.5 72.1 3.5 72.1c4.17 2.957 18.394 4.445 26.007 2.63l.001.001c12.451-2.438 18.062-9.294 16.6-14.926" fill="#7BDED2"/>
        <path d="M46.108 59.804c-.822-3.17-4.382-3.387-4.382-3.387-6.628-13.57-26.542 6.024-26.542 6.024l.001.002c-.729.638-1.442 1.29-2.13 1.95C7.961 69.276 3.5 72.1 3.5 72.1c4.17 2.957 18.394 4.445 26.007 2.63l.001.001c12.451-2.438 18.062-9.294 16.6-14.926zM24.634 64.143s8.465-8.038 17.093-7.726" stroke="#33475C" stroke-linecap="round" stroke-linejoin="round"/>
        <path d="M8.444 30.64s17.348-4.559 27.199 1.3c9.851 5.855 3.153 11.791.227 12.637-2.927.846-17.087 3.829-27.426-13.936" fill="#7BDED2"/>
        <path d="M8.444 30.64s17.348-4.559 27.199 1.3c9.851 5.855 3.153 11.791.227 12.637-2.927.846-17.087 3.829-27.426-13.936zM20.318 34.362s18.812.393 19.96 6.406M32.605 97.254c0 3.093 2.032 6.186 6.097 8.532 8.128 4.694 21.43 4.694 29.557 0 4.063-2.345 6.094-5.435 6.097-8.526v-.006" stroke="#33475C" stroke-linecap="round" stroke-linejoin="round"/>
        <path d="M76.604 104.706c0-1.49.221-3.83-1.728-6.218-.167-.194-.327-.39-.516-.584 0-.002-.002-.003-.004-.005-.012-.011-.02-.024-.032-.037.007.133.032.265.032.398v6.441l-.038.44v.006l-.009.097-.01.002c-.246 2.538-2.244 5.037-6.04 6.965-4.063 2.063-9.42 3.095-14.778 3.095-5.357 0-10.716-1.032-14.779-3.095-3.796-1.928-5.799-4.428-6.045-6.966l-.005-.001-.047-.543v.005-6.452c0-.131.024-.261.032-.391-.205.209-.375.418-.554.627-1.947 2.387-1.726 4.728-1.726 6.216 0 1.502-.24 3.869 1.764 6.277.134.156.267.31.417.466l.027.03.04-.204v.243c1.126 1.158 2.657 2.31 4.738 3.368 4.344 2.206 10.075 3.42 16.138 3.42 6.061 0 11.793-1.214 16.137-3.42 2.081-1.057 3.612-2.21 4.738-3.368v-.243l.04.204c.011-.01.02-.021.03-.033.148-.154.281-.308.414-.462 2.005-2.408 1.764-4.776 1.764-6.278" fill="#FF8F52"/>
        <path d="M76.604 104.706c0-1.49.221-3.83-1.728-6.218-.167-.194-.327-.39-.516-.584 0-.002-.002-.003-.004-.005-.012-.011-.02-.024-.032-.037.007.133.032.265.032.398v6.441l-.038.44v.006l-.009.097-.01.002c-.246 2.538-2.244 5.037-6.04 6.965-4.063 2.063-9.42 3.095-14.778 3.095-5.357 0-10.716-1.032-14.779-3.095-3.796-1.928-5.799-4.428-6.045-6.966l-.005-.001-.047-.543v.005-6.452c0-.131.024-.261.032-.391-.205.209-.375.418-.554.627-1.947 2.387-1.726 4.728-1.726 6.216 0 1.502-.24 3.869 1.764 6.277.134.156.267.31.417.466l.027.03.04-.204v.243c1.126 1.158 2.657 2.31 4.738 3.368 4.344 2.206 10.075 3.42 16.138 3.42 6.061 0 11.793-1.214 16.137-3.42 2.081-1.057 3.612-2.21 4.738-3.368v-.243l.04.204c.011-.01.02-.021.03-.033.148-.154.281-.308.414-.462 2.005-2.408 1.764-4.776 1.764-6.278z" stroke="#33475C" stroke-linecap="round" stroke-linejoin="round"/>
        <path d="M67.972 112.712s-8.248 15.57-3.58 22.454c0 0 .071-.64 1.307-2.38 0 0-2.14-7.604 3.653-18.52l-1.38-1.554z" fill="#FF8F52"/>
        <path d="M67.972 112.712s-8.248 15.57-3.58 22.454c0 0 .071-.64 1.307-2.38 0 0-2.14-7.604 3.653-18.52l-1.38-1.554z" stroke="#33475C" stroke-linecap="round" stroke-linejoin="round"/>
        <path d="M77.138 107.561s-1.824-2.044-7.505 4.458l-.622 2.126 5.064-2.129 2.796-1.819.731-.793-.464-1.843z" fill="#FF8F52"/>
        <path d="M77.138 107.561s-1.824-2.044-7.505 4.458l-.622 2.126 5.064-2.129 2.796-1.819.731-.793-.464-1.843z" stroke="#33475C" stroke-linecap="round" stroke-linejoin="round"/>
        <path d="M69.633 112.02s6.12-1.785 7.505-4.459c0 0 1.581 1.794 1.145 2.967 0 0-2.237 2.65-7.933 4.336l-1.338-.719.621-2.126z" fill="#FF8F52"/>
        <path d="M69.633 112.02s6.12-1.785 7.505-4.459c0 0 1.581 1.794 1.145 2.967 0 0-2.237 2.65-7.933 4.336l-1.338-.719.621-2.126z" stroke="#33475C" stroke-linecap="round" stroke-linejoin="round"/>
        <path d="M57.01 116.582s.9-3.77 11.19-4.022l-4.995 4.063-5.032 1.236-1.163-1.277z" fill="#FF8F52"/>
        <path d="M57.01 116.582s.9-3.77 11.19-4.022l-4.995 4.063-5.032 1.236-1.163-1.277z" stroke="#33475C" stroke-linecap="round" stroke-linejoin="round"/>
        <path d="M68.2 112.56s-6.297 3.336-11.19 4.021c0 0-.282 2.622 1.082 2.7 0 0 6.35-1.436 10.046-3.969l.062-2.753z" fill="#FF8F52"/>
        <path d="M68.2 112.56s-6.297 3.336-11.19 4.021c0 0-.282 2.622 1.082 2.7 0 0 6.35-1.436 10.046-3.969l.062-2.753z" stroke="#33475C" stroke-linecap="round" stroke-linejoin="round"/>
        <path d="M67.472 112.547s-.55 2.235.466 2.714c0 0 1.034.246 1.862-.862 0 0 .525-1.344 0-2.934 0 0-1.297-.05-2.328 1.082" fill="#FF8F52"/>
        <path d="M67.472 112.547s-.55 2.235.466 2.714c0 0 1.034.246 1.862-.862 0 0 .525-1.344 0-2.934 0 0-1.297-.05-2.328 1.082z" stroke="#33475C" stroke-linecap="round" stroke-linejoin="round"/>
        <path d="M79.77 135.922c.677.497 1.562 1.196 2.354 1.98.19-2.516-.243-5.077-1.312-7.376-.978-2.102-2.4-3.853-3.658-5.397l-.364-.448c-2.04-2.52-3.99-5.163-5.789-7.853-.306-.46-1.296-2.517-1.208-3.117l-1.334 1.196c-.252 1.599.64 3.135 1.526 4.49 1.723 2.633 3.567 5.188 5.524 7.653 1.225 1.544 2.508 3.076 3.321 4.87.57 1.257.883 2.624.94 4.002" fill="#FF8F52"/>
        <path d="M79.77 135.922c.677.497 1.562 1.196 2.354 1.98.19-2.516-.243-5.077-1.312-7.376-.978-2.102-2.4-3.853-3.658-5.397l-.364-.448c-2.04-2.52-3.99-5.163-5.789-7.853-.306-.46-1.296-2.517-1.208-3.117l-1.334 1.196c-.252 1.599.64 3.135 1.526 4.49 1.723 2.633 3.567 5.188 5.524 7.653 1.225 1.544 2.508 3.076 3.321 4.87.57 1.257.883 2.624.94 4.002zM55.718 127.092c-2.179 1.556-4.649 2.886-7.32 3.94-1.344.532-2.762.998-4.27 1.159" stroke="#33475C" stroke-linecap="round" stroke-linejoin="round"/>
        <path d="M61.666 44.542c0-3.173-2.572-5.745-5.745-5.745-.351 0-.694.033-1.027.094-.366-2.822-2.776-5.001-5.696-5.001s-5.328 2.177-5.695 4.996c-.354-.068-.72-.105-1.093-.105-3.173 0-5.744 2.572-5.744 5.744 0 2.298 1.35 4.28 3.299 5.2-.473.835-.744 1.798-.744 2.827 0 3.173 2.57 5.744 5.744 5.744 1.687 0 3.205-.728 4.256-1.886 1.05 1.158 2.568 1.886 4.256 1.886 3.172 0 5.744-2.571 5.744-5.744 0-1.04-.278-2.015-.761-2.857 1.898-.937 3.206-2.892 3.206-5.153" fill="#FFF"/>
        <path d="M61.666 44.542c0-3.173-2.572-5.745-5.745-5.745-.351 0-.694.033-1.027.094-.366-2.822-2.776-5.001-5.696-5.001s-5.328 2.177-5.695 4.996c-.354-.068-.72-.105-1.093-.105-3.173 0-5.744 2.572-5.744 5.744 0 2.298 1.35 4.28 3.299 5.2-.473.835-.744 1.798-.744 2.827 0 3.173 2.57 5.744 5.744 5.744 1.687 0 3.205-.728 4.256-1.886 1.05 1.158 2.568 1.886 4.256 1.886 3.172 0 5.744-2.571 5.744-5.744 0-1.04-.278-2.015-.761-2.857 1.898-.937 3.206-2.892 3.206-5.153z" stroke="#33475C" stroke-linecap="round" stroke-linejoin="round"/>
        <path d="M50.85 42.854c0 .898-.729 1.628-1.628 1.628-.899 0-1.628-.73-1.628-1.628 0-.899.73-1.628 1.628-1.628.9 0 1.628.73 1.628 1.628M47.307 45.411c0 .899-.729 1.628-1.628 1.628-.898 0-1.628-.729-1.628-1.628 0-.899.73-1.628 1.628-1.628.9 0 1.628.729 1.628 1.628M54.279 45.411c0 .899-.729 1.628-1.628 1.628-.899 0-1.628-.729-1.628-1.628 0-.899.729-1.628 1.628-1.628.899 0 1.628.729 1.628 1.628M52.942 49.33c0 .9-.729 1.629-1.628 1.629-.898 0-1.628-.73-1.628-1.628 0-.898.73-1.628 1.628-1.628.9 0 1.628.73 1.628 1.628M48.758 49.33c0 .9-.729 1.629-1.628 1.629-.899 0-1.628-.73-1.628-1.628 0-.898.73-1.628 1.628-1.628.9 0 1.628.73 1.628 1.628" fill="#F6C364"/>
    </g>
</svg>